<svg xmlns="http://www.w3.org/2000/svg" xmlns:xlink="http://www.w3.org/1999/xlink" width="128" zoomAndPan="magnify" viewBox="0 0 96 95.999999" height="128" preserveAspectRatio="xMidYMid meet" version="1.0"><defs><clipPath id="dc3a530fde"><path d="M 13.738281 0.339844 L 81.988281 0.339844 L 81.988281 95.644531 L 13.738281 95.644531 Z M 13.738281 0.339844 " clip-rule="nonzero"/></clipPath></defs><path fill="#e6e6e6" d="M 67.902344 88.691406 C 61.320312 91.246094 54.328125 91.75 47.355469 91.242188 C 43.753906 90.980469 40.183594 90.34375 36.585938 90.027344 C 33.011719 89.710938 29.546875 89.382812 26.160156 88.125 C 25.652344 87.933594 25.167969 87.710938 24.691406 87.472656 C 23.597656 84 22.640625 80.472656 21.910156 77.011719 C 20.550781 70.628906 20.546875 64.375 20.636719 57.933594 C 23.648438 61.695312 28.015625 64.289062 32.828125 64.898438 C 34.660156 65.132812 37.332031 65.230469 39.675781 64.695312 C 40.101562 66.675781 40.285156 69.664062 41.710938 71.035156 L 41.90625 71.148438 C 41.945312 71.253906 42.027344 71.339844 42.175781 71.390625 C 46.648438 72.851562 52.664062 73.132812 56.359375 69.710938 C 56.574219 69.710938 56.789062 69.582031 56.832031 69.316406 C 57.203125 66.914062 57.386719 64.371094 57.347656 61.835938 C 58.851562 62.171875 60.355469 62.308594 61.980469 62.363281 C 64.242188 62.4375 66.484375 62.230469 68.679688 61.710938 C 70.039062 61.394531 71.910156 60.925781 73.1875 60.03125 C 73.597656 62.671875 74.152344 65.28125 74.195312 67.96875 C 74.238281 70.839844 74.238281 73.722656 74.222656 76.597656 C 74.207031 79.847656 73.792969 83.109375 73.214844 86.304688 C 71.484375 87.242188 69.652344 88.011719 67.902344 88.691406 " fill-opacity="1" fill-rule="nonzero"/><path fill="#2dd5c4" d="M 43.71875 60.058594 L 43.585938 60.058594 C 42.222656 60.347656 40.992188 60.425781 39.839844 60.289062 C 39.753906 59.585938 39.386719 56.566406 39.378906 55.878906 C 40.035156 56.1875 40.902344 56.277344 41.417969 56.28125 C 44.324219 56.308594 47.253906 55.644531 50.167969 55.480469 C 51.035156 55.429688 54.125 55.011719 55.609375 53.964844 C 55.71875 54.546875 56.097656 57.457031 56.167969 58.050781 C 54.796875 58.257812 53.394531 58.328125 51.964844 58.339844 C 51.675781 58.339844 51.523438 58.550781 51.503906 58.78125 C 51.449219 58.902344 51.445312 59.042969 51.546875 59.191406 C 52.277344 60.273438 53.8125 60.664062 54.992188 61.121094 C 55.460938 61.304688 55.925781 61.453125 56.386719 61.585938 C 56.429688 64.035156 56.257812 66.496094 55.921875 68.800781 C 52.617188 72.171875 46.714844 71.855469 42.574219 70.503906 L 42.453125 70.488281 L 42.328125 70.277344 C 41.050781 69.054688 41.0625 66.058594 40.628906 64.433594 C 42.585938 63.800781 44.160156 62.613281 44.546875 60.539062 C 44.644531 60.023438 43.996094 59.757812 43.71875 60.058594 " fill-opacity="1" fill-rule="nonzero"/><path fill="#e6e6e6" d="M 57.105469 57.882812 C 56.996094 57 56.558594 53.808594 56.375 52.957031 C 56.449219 52.597656 56.371094 52.195312 56.035156 51.738281 C 55.308594 50.742188 53.25 50.769531 51.734375 50.792969 C 51.28125 50.804688 50.875 50.8125 50.566406 50.789062 C 47.972656 50.621094 45.433594 51.320312 42.882812 51.710938 C 42.789062 51.722656 42.722656 51.765625 42.65625 51.808594 C 40.5 52.265625 38.214844 53.113281 38.449219 54.703125 C 38.394531 55.691406 38.742188 59.058594 38.839844 60.105469 C 37.199219 59.710938 35.703125 58.839844 34.207031 57.394531 C 32.015625 55.28125 30.371094 52.488281 29.058594 49.757812 C 26.265625 43.972656 25.175781 36.726562 25.410156 30.359375 C 25.613281 24.714844 28.640625 18.527344 33.457031 15.417969 C 39.382812 11.59375 45.605469 17.75 46.765625 23.378906 C 46.828125 23.683594 47.089844 23.773438 47.324219 23.710938 C 47.53125 23.722656 47.742188 23.632812 47.820312 23.378906 C 48.972656 19.726562 51.082031 17.5625 54.648438 16.265625 C 58.011719 15.042969 61.90625 15.4375 64.699219 17.742188 C 68.921875 21.230469 69.742188 28.453125 70.769531 33.503906 C 72.003906 39.554688 71.3125 45.164062 67.703125 50.269531 C 65.996094 52.683594 63.773438 54.714844 61.269531 56.269531 C 59.941406 57.085938 58.546875 57.578125 57.105469 57.882812 " fill-opacity="1" fill-rule="nonzero"/><path fill="#ff8402" d="M 38.195312 91.355469 C 38.449219 91.917969 38.996094 92.574219 39.34375 93.230469 C 38.652344 92.882812 37.929688 92.539062 37.222656 92.453125 C 36.242188 92.328125 35.679688 92.675781 35.097656 93.226562 C 34.871094 92.703125 34.558594 92.292969 33.890625 92.164062 C 33.097656 92.011719 32.292969 92.316406 31.679688 92.816406 C 30.996094 91.714844 29.738281 92.03125 28.484375 92.28125 C 29.226562 91.613281 30.066406 91.054688 30.796875 90.375 C 31.582031 90.507812 32.367188 90.613281 33.144531 90.699219 C 34.820312 90.875 36.496094 91.066406 38.175781 91.253906 L 38.195312 91.355469 " fill-opacity="1" fill-rule="nonzero"/><path fill="#ffffff" d="M 66.191406 22.296875 C 63.765625 17.609375 58.691406 15.828125 54.234375 18.886719 C 50.847656 21.207031 48.121094 25.023438 47.417969 28.945312 C 46.6875 25.921875 46.46875 22.925781 44.503906 20.378906 C 41.941406 17.050781 37.390625 15.085938 33.808594 18.179688 C 30.019531 21.457031 29.265625 26.859375 29.289062 31.613281 C 29.320312 38.378906 31.085938 45.5 33.753906 51.671875 C 33.804688 51.792969 33.886719 51.855469 33.972656 51.894531 C 35.484375 53.933594 39.226562 51.449219 40.882812 50.660156 C 42.472656 49.902344 44 49.4375 45.707031 49.0625 C 47.542969 48.65625 49.121094 49.050781 50.917969 49.289062 C 53.964844 49.691406 57.019531 49.550781 58.75 52.523438 C 58.925781 52.824219 59.257812 52.804688 59.46875 52.636719 L 59.65625 52.578125 C 64.394531 50.042969 68.640625 46.925781 69.386719 41.21875 C 70.195312 34.996094 69.09375 27.890625 66.191406 22.296875 " fill-opacity="1" fill-rule="nonzero"/><path fill="#ffffff" d="M 71.195312 67.179688 C 71.117188 67.074219 70.996094 67.003906 70.820312 67.019531 C 68.929688 67.207031 67.167969 67.847656 65.246094 67.882812 C 64.304688 67.902344 63.398438 67.957031 62.449219 67.820312 C 61.945312 67.746094 61.589844 67.636719 61.160156 67.683594 C 60.953125 67.605469 60.703125 67.667969 60.582031 67.859375 C 60.351562 68.039062 60.363281 68.382812 60.535156 68.585938 C 60.652344 70.347656 60.710938 72.039062 59.964844 73.722656 C 59.273438 75.273438 57.410156 76.203125 55.996094 76.960938 C 53.382812 78.359375 50.808594 79.605469 48.632812 81.664062 C 47.421875 82.800781 46.40625 84.792969 47.34375 86.394531 C 48.199219 87.863281 50.527344 88.0625 52.007812 88.097656 C 54.894531 88.167969 57.976562 87.351562 60.734375 86.589844 C 62.976562 85.972656 65.03125 84.941406 66.808594 83.445312 C 71.269531 79.699219 71.398438 72.957031 71.546875 67.628906 C 71.554688 67.367188 71.390625 67.222656 71.195312 67.179688 " fill-opacity="1" fill-rule="nonzero"/><path fill="#ff8402" d="M 65.433594 90.679688 C 65.890625 91 66.21875 91.710938 66.609375 92.125 C 66.808594 92.339844 66.992188 92.59375 67.171875 92.855469 C 65.960938 92.722656 64.617188 93.257812 64.152344 94.332031 C 63.542969 93.75 63.160156 93.167969 62.039062 93.183594 C 60.886719 93.199219 60.167969 93.433594 59.550781 94.15625 C 59.234375 93.660156 58.828125 93.292969 58.160156 93.085938 C 57.46875 92.867188 56.757812 93.222656 56.105469 93.632812 C 56.257812 93.160156 56.382812 92.683594 56.460938 92.222656 C 59.457031 91.949219 62.410156 91.390625 65.300781 90.542969 L 65.433594 90.679688 " fill-opacity="1" fill-rule="nonzero"/><g clip-path="url(#dc3a530fde)"><path fill="#000000" d="M 53.859375 53.898438 C 53.007812 54.265625 51.691406 54.386719 50.785156 54.476562 C 48.195312 54.71875 45.648438 54.921875 43.070312 55.257812 C 42.238281 55.359375 41.40625 55.34375 40.570312 55.21875 C 39.511719 55.058594 39.304688 54.210938 40.175781 53.777344 C 40.714844 53.441406 41.285156 53.1875 41.890625 53.015625 C 43.234375 52.558594 45.039062 52.363281 46.445312 52.105469 C 48.003906 51.867188 49.5625 51.695312 51.1875 51.800781 C 52.226562 51.871094 53.257812 51.84375 54.296875 51.996094 C 55.265625 52.179688 55.382812 53.316406 53.859375 53.898438 M 57.105469 57.882812 C 56.996094 57 56.558594 53.808594 56.375 52.957031 C 56.449219 52.597656 56.371094 52.195312 56.035156 51.738281 C 55.308594 50.742188 53.25 50.769531 51.734375 50.792969 C 51.28125 50.804688 50.875 50.8125 50.566406 50.789062 C 47.972656 50.621094 45.433594 51.320312 42.882812 51.710938 C 42.789062 51.722656 42.722656 51.765625 42.65625 51.808594 C 40.5 52.265625 38.214844 53.113281 38.449219 54.703125 C 38.394531 55.691406 38.742188 59.058594 38.839844 60.105469 C 37.199219 59.710938 35.703125 58.839844 34.207031 57.394531 C 32.015625 55.28125 30.371094 52.488281 29.058594 49.757812 C 26.265625 43.972656 25.175781 36.726562 25.410156 30.359375 C 25.613281 24.714844 28.640625 18.527344 33.457031 15.417969 C 39.382812 11.59375 45.605469 17.75 46.765625 23.378906 C 46.828125 23.683594 47.089844 23.773438 47.324219 23.710938 C 47.53125 23.722656 47.742188 23.632812 47.820312 23.378906 C 48.972656 19.726562 51.082031 17.5625 54.648438 16.265625 C 58.011719 15.042969 61.90625 15.4375 64.699219 17.742188 C 68.921875 21.230469 69.742188 28.453125 70.769531 33.503906 C 72.003906 39.554688 71.3125 45.164062 67.703125 50.269531 C 65.996094 52.683594 63.773438 54.714844 61.269531 56.269531 C 59.941406 57.085938 58.546875 57.578125 57.105469 57.882812 M 43.71875 60.058594 L 43.585938 60.058594 C 42.222656 60.347656 40.992188 60.425781 39.839844 60.289062 C 39.753906 59.585938 39.386719 56.566406 39.378906 55.878906 C 40.035156 56.1875 40.902344 56.277344 41.417969 56.28125 C 44.324219 56.308594 47.253906 55.644531 50.167969 55.480469 C 51.035156 55.429688 54.125 55.011719 55.609375 53.964844 C 55.71875 54.546875 56.097656 57.457031 56.167969 58.050781 C 54.796875 58.257812 53.394531 58.328125 51.964844 58.339844 C 51.675781 58.339844 51.523438 58.550781 51.503906 58.78125 C 51.449219 58.902344 51.445312 59.042969 51.546875 59.191406 C 52.277344 60.273438 53.8125 60.664062 54.992188 61.121094 C 55.460938 61.304688 55.925781 61.453125 56.386719 61.585938 C 56.429688 64.035156 56.257812 66.496094 55.921875 68.800781 C 52.617188 72.171875 46.714844 71.855469 42.574219 70.503906 L 42.453125 70.488281 L 42.328125 70.277344 C 41.050781 69.054688 41.0625 66.058594 40.628906 64.433594 C 42.585938 63.800781 44.160156 62.613281 44.546875 60.539062 C 44.644531 60.023438 43.996094 59.757812 43.71875 60.058594 M 67.902344 88.691406 C 61.320312 91.246094 54.328125 91.75 47.355469 91.242188 C 43.753906 90.980469 40.183594 90.34375 36.585938 90.027344 C 33.011719 89.710938 29.546875 89.382812 26.160156 88.125 C 25.652344 87.933594 25.167969 87.710938 24.691406 87.472656 C 23.597656 84 22.640625 80.472656 21.910156 77.011719 C 20.550781 70.628906 20.546875 64.375 20.636719 57.933594 C 23.648438 61.695312 28.015625 64.289062 32.828125 64.898438 C 34.660156 65.132812 37.332031 65.230469 39.675781 64.695312 C 40.101562 66.675781 40.285156 69.664062 41.710938 71.035156 L 41.90625 71.148438 C 41.945312 71.253906 42.027344 71.339844 42.175781 71.390625 C 46.648438 72.851562 52.664062 73.132812 56.359375 69.710938 C 56.574219 69.710938 56.789062 69.582031 56.832031 69.316406 C 57.203125 66.914062 57.386719 64.371094 57.347656 61.835938 C 58.851562 62.171875 60.355469 62.308594 61.980469 62.363281 C 64.242188 62.4375 66.484375 62.230469 68.679688 61.710938 C 70.039062 61.394531 71.910156 60.925781 73.1875 60.03125 C 73.597656 62.671875 74.152344 65.28125 74.195312 67.96875 C 74.238281 70.839844 74.238281 73.722656 74.222656 76.597656 C 74.207031 79.847656 73.792969 83.109375 73.214844 86.304688 C 71.484375 87.242188 69.652344 88.011719 67.902344 88.691406 M 65.433594 90.679688 C 65.890625 91 66.21875 91.710938 66.609375 92.125 C 66.808594 92.339844 66.992188 92.59375 67.171875 92.855469 C 65.960938 92.722656 64.617188 93.257812 64.152344 94.332031 C 63.542969 93.75 63.160156 93.167969 62.039062 93.183594 C 60.886719 93.199219 60.167969 93.433594 59.550781 94.15625 C 59.234375 93.660156 58.828125 93.292969 58.160156 93.085938 C 57.46875 92.867188 56.757812 93.222656 56.105469 93.632812 C 56.257812 93.160156 56.382812 92.683594 56.460938 92.222656 C 59.457031 91.949219 62.410156 91.390625 65.300781 90.542969 L 65.433594 90.679688 M 38.195312 91.355469 C 38.449219 91.917969 38.996094 92.574219 39.34375 93.230469 C 38.652344 92.882812 37.929688 92.539062 37.222656 92.453125 C 36.242188 92.328125 35.679688 92.675781 35.097656 93.226562 C 34.871094 92.703125 34.558594 92.292969 33.890625 92.164062 C 33.097656 92.011719 32.292969 92.316406 31.679688 92.816406 C 30.996094 91.714844 29.738281 92.03125 28.484375 92.28125 C 29.226562 91.613281 30.066406 91.054688 30.796875 90.375 C 31.582031 90.507812 32.367188 90.613281 33.144531 90.699219 C 34.820312 90.875 36.496094 91.066406 38.175781 91.253906 L 38.195312 91.355469 M 81.976562 74.726562 L 82.019531 74.5 C 81.726562 67.050781 81.167969 59.5625 80.683594 52.117188 C 80.257812 45.546875 79.460938 39.023438 77.964844 32.609375 C 75.308594 21.214844 69.707031 9.636719 59.304688 3.527344 C 48.078125 -3.0625 35.179688 1.234375 26.929688 10.417969 C 18.847656 19.410156 15.488281 31.949219 14.257812 43.722656 C 13.371094 52.234375 13.808594 60.835938 14.210938 69.363281 C 14.082031 76.355469 16.910156 83.695312 22.910156 87.585938 C 24.921875 88.894531 27.230469 89.660156 29.585938 90.148438 C 28.613281 90.960938 27.570312 91.664062 26.789062 92.691406 C 26.5625 92.992188 26.871094 93.429688 27.210938 93.425781 C 28.167969 93.414062 30.625 92.289062 31.046875 93.800781 C 31.140625 94.125 31.625 94.3125 31.859375 94.015625 C 32.222656 93.5625 32.546875 93.320312 33.117188 93.171875 C 34.175781 92.890625 34.214844 93.582031 34.445312 94.226562 C 34.597656 94.640625 35.101562 94.628906 35.316406 94.382812 L 35.332031 94.363281 L 35.355469 94.335938 C 35.546875 94.132812 35.84375 93.726562 36 93.617188 C 36.554688 93.226562 37.277344 93.402344 37.835938 93.652344 C 38.519531 93.960938 39.203125 94.269531 39.886719 94.578125 C 40.199219 94.71875 40.640625 94.5625 40.621094 94.160156 C 40.566406 93.148438 39.828125 92.265625 39.308594 91.382812 C 41.988281 91.683594 44.675781 91.972656 47.355469 92.214844 C 50.070312 92.460938 52.78125 92.472656 55.464844 92.285156 C 55.289062 93.082031 54.984375 93.929688 54.710938 94.636719 C 54.546875 95.074219 55.085938 95.355469 55.425781 95.1875 C 56.367188 94.730469 58.167969 93.09375 59.019531 95.203125 C 59.171875 95.574219 59.675781 95.710938 59.90625 95.316406 C 61.261719 93.039062 62.773438 94.574219 64.097656 95.550781 C 64.253906 95.667969 64.40625 95.660156 64.53125 95.589844 C 64.746094 95.5625 64.945312 95.414062 64.953125 95.132812 C 64.972656 93.730469 67.265625 93.4375 68.066406 94.257812 C 68.449219 94.648438 69.132812 94.136719 68.828125 93.667969 C 68.40625 93.019531 68.011719 92.257812 67.503906 91.675781 C 67.121094 91.234375 66.769531 90.65625 66.339844 90.207031 C 68.035156 89.660156 69.707031 89.039062 71.34375 88.285156 C 74.511719 86.828125 77.546875 84.992188 79.820312 82.308594 C 81.746094 80.035156 82.207031 77.457031 81.976562 74.726562 " fill-opacity="1" fill-rule="nonzero"/></g><path fill="#000000" d="M 34.804688 27.199219 C 33.789062 27.175781 32.472656 28.109375 32.550781 29.222656 L 32.589844 29.375 L 32.597656 29.40625 L 32.617188 29.445312 C 32.6875 29.589844 32.824219 29.707031 33.035156 29.707031 C 33.125 29.707031 33.199219 29.679688 33.261719 29.648438 C 33.417969 29.582031 33.535156 29.445312 33.519531 29.222656 C 33.433594 27.933594 36.222656 27.777344 36.3125 28.976562 C 36.359375 29.597656 37.328125 29.601562 37.28125 28.976562 C 37.1875 27.707031 35.925781 27.222656 34.804688 27.199219 " fill-opacity="1" fill-rule="nonzero"/><path fill="#000000" d="M 60.300781 27.871094 C 60.363281 28.488281 61.332031 28.496094 61.273438 27.871094 C 61.15625 26.6875 60.085938 25.886719 58.933594 25.929688 C 57.945312 25.972656 56.417969 26.925781 56.417969 28.03125 C 56.417969 28.660156 57.390625 28.660156 57.390625 28.03125 C 57.390625 27.625 58.246094 27.09375 58.613281 26.96875 C 59.261719 26.753906 60.226562 27.097656 60.300781 27.871094 " fill-opacity="1" fill-rule="nonzero"/><path fill="#22a093" d="M 53.859375 53.898438 C 53.007812 54.265625 51.691406 54.386719 50.785156 54.476562 C 48.195312 54.71875 45.648438 54.921875 43.070312 55.257812 C 42.238281 55.359375 41.40625 55.34375 40.570312 55.21875 C 39.511719 55.058594 39.304688 54.210938 40.175781 53.777344 C 40.714844 53.441406 41.285156 53.1875 41.890625 53.015625 C 43.234375 52.558594 45.039062 52.363281 46.445312 52.105469 C 48.003906 51.867188 49.5625 51.695312 51.1875 51.800781 C 52.226562 51.871094 53.257812 51.84375 54.296875 51.996094 C 55.265625 52.179688 55.382812 53.316406 53.859375 53.898438 " fill-opacity="1" fill-rule="nonzero"/><path fill="#ff8402" d="M 48.085938 30.660156 C 47.835938 31.132812 47.5625 31.65625 47.265625 32.136719 C 46.789062 31.710938 46.351562 31.253906 45.9375 30.761719 C 45.433594 30.160156 45.078125 29.492188 44.691406 28.832031 C 46.152344 28.785156 47.605469 28.667969 49.0625 28.625 C 48.820312 29.324219 48.421875 30.027344 48.085938 30.660156 " fill-opacity="1" fill-rule="nonzero"/><path fill="#000000" d="M 48.085938 30.660156 C 47.835938 31.132812 47.5625 31.65625 47.265625 32.136719 C 46.789062 31.710938 46.351562 31.253906 45.9375 30.761719 C 45.433594 30.160156 45.078125 29.492188 44.691406 28.832031 C 46.152344 28.785156 47.605469 28.667969 49.0625 28.625 C 48.820312 29.324219 48.421875 30.027344 48.085938 30.660156 M 49.65625 27.636719 C 47.757812 27.65625 45.859375 27.863281 43.957031 27.878906 L 43.808594 27.90625 C 43.484375 27.933594 43.179688 28.261719 43.414062 28.613281 C 43.921875 29.367188 44.269531 30.191406 44.824219 30.914062 C 45.476562 31.757812 46.175781 32.550781 47.011719 33.21875 C 47.273438 33.429688 47.574219 33.394531 47.773438 33.121094 C 48.277344 32.429688 48.707031 31.566406 49.105469 30.804688 C 49.492188 30.082031 49.925781 29.292969 50.128906 28.496094 C 50.152344 28.402344 50.140625 28.3125 50.113281 28.226562 C 50.164062 27.949219 50.015625 27.632812 49.65625 27.636719 " fill-opacity="1" fill-rule="nonzero"/><path fill="#ffffff" d="M 42.988281 59.425781 C 43.460938 59.289062 43.804688 58.742188 43.570312 58.257812 C 43.226562 57.546875 42.164062 57.664062 41.890625 58.3125 C 41.824219 58.429688 41.800781 58.558594 41.824219 58.695312 L 41.824219 58.699219 C 41.851562 59.125 42.210938 59.375 42.574219 59.414062 C 42.710938 59.445312 42.851562 59.460938 42.988281 59.425781 " fill-opacity="1" fill-rule="nonzero"/><path fill="#ffffff" d="M 48.496094 58.9375 C 48.972656 58.804688 49.316406 58.253906 49.082031 57.773438 C 48.734375 57.058594 47.675781 57.179688 47.402344 57.824219 C 47.335938 57.941406 47.308594 58.074219 47.332031 58.210938 L 47.332031 58.214844 C 47.363281 58.636719 47.71875 58.886719 48.082031 58.925781 C 48.21875 58.960938 48.359375 58.976562 48.496094 58.9375 " fill-opacity="1" fill-rule="nonzero"/><path fill="#ffffff" d="M 53.683594 57.753906 C 54.164062 57.617188 54.503906 57.070312 54.269531 56.582031 C 53.921875 55.871094 52.863281 55.988281 52.589844 56.636719 C 52.523438 56.753906 52.496094 56.882812 52.519531 57.023438 L 52.519531 57.027344 C 52.550781 57.453125 52.90625 57.699219 53.269531 57.738281 C 53.40625 57.777344 53.546875 57.789062 53.683594 57.753906 " fill-opacity="1" fill-rule="nonzero"/><path fill="#ffffff" d="M 42.324219 64.617188 C 42.257812 64.734375 42.230469 64.863281 42.253906 65.003906 C 42.285156 65.433594 42.640625 65.679688 43.003906 65.71875 C 43.140625 65.753906 43.28125 65.769531 43.417969 65.734375 C 43.894531 65.597656 44.238281 65.050781 44.003906 64.5625 C 43.65625 63.851562 42.597656 63.96875 42.324219 64.617188 " fill-opacity="1" fill-rule="nonzero"/><path fill="#ffffff" d="M 51.707031 61.960938 C 52.183594 61.824219 52.527344 61.277344 52.292969 60.792969 C 51.945312 60.078125 50.882812 60.195312 50.609375 60.84375 C 50.542969 60.964844 50.523438 61.09375 50.539062 61.234375 C 50.574219 61.660156 50.925781 61.910156 51.296875 61.949219 C 51.433594 61.984375 51.574219 61.996094 51.707031 61.960938 " fill-opacity="1" fill-rule="nonzero"/><path fill="#ffffff" d="M 45.433594 61.992188 C 45.367188 62.109375 45.34375 62.238281 45.363281 62.375 L 45.363281 62.378906 C 45.394531 62.800781 45.75 63.050781 46.117188 63.089844 C 46.253906 63.125 46.394531 63.140625 46.527344 63.101562 C 47.007812 62.96875 47.351562 62.421875 47.113281 61.9375 C 46.765625 61.226562 45.707031 61.34375 45.433594 61.992188 " fill-opacity="1" fill-rule="nonzero"/><path fill="#ffffff" d="M 48.042969 64.816406 C 47.976562 64.933594 47.953125 65.0625 47.972656 65.199219 L 47.972656 65.203125 C 48.003906 65.625 48.359375 65.878906 48.726562 65.914062 C 48.863281 65.949219 49.003906 65.964844 49.136719 65.925781 C 49.617188 65.792969 49.957031 65.246094 49.726562 64.761719 C 49.375 64.050781 48.316406 64.167969 48.042969 64.816406 " fill-opacity="1" fill-rule="nonzero"/><path fill="#ffffff" d="M 55.1875 63.726562 C 54.835938 63.015625 53.777344 63.132812 53.507812 63.785156 C 53.441406 63.902344 53.414062 64.03125 53.4375 64.167969 C 53.464844 64.59375 53.820312 64.847656 54.1875 64.882812 C 54.324219 64.917969 54.464844 64.933594 54.597656 64.894531 C 55.078125 64.761719 55.421875 64.214844 55.1875 63.726562 " fill-opacity="1" fill-rule="nonzero"/><path fill="#ffffff" d="M 51.167969 67.664062 C 51.101562 67.78125 51.078125 67.910156 51.097656 68.046875 L 51.097656 68.050781 C 51.132812 68.476562 51.488281 68.726562 51.851562 68.761719 C 51.988281 68.800781 52.128906 68.816406 52.261719 68.777344 C 52.742188 68.640625 53.085938 68.097656 52.847656 67.609375 C 52.5 66.898438 51.441406 67.015625 51.167969 67.664062 " fill-opacity="1" fill-rule="nonzero"/><path fill="#ffffff" d="M 45.433594 68.179688 C 45.367188 68.300781 45.34375 68.429688 45.363281 68.566406 L 45.363281 68.570312 C 45.394531 68.996094 45.75 69.242188 46.117188 69.28125 C 46.253906 69.320312 46.394531 69.335938 46.527344 69.296875 C 47.007812 69.160156 47.351562 68.613281 47.113281 68.128906 C 46.765625 67.414062 45.707031 67.535156 45.433594 68.179688 " fill-opacity="1" fill-rule="nonzero"/><path fill="#4cdbcd" d="M 50.683594 69.269531 C 49.863281 69.269531 48.992188 69.046875 48.136719 68.558594 C 46.53125 67.648438 45.511719 66.523438 44.839844 64.800781 C 44.570312 64.105469 44.75 63.136719 44.972656 62.445312 C 45.632812 60.425781 45.039062 59.46875 43.644531 58.496094 C 43.632812 58.414062 43.609375 58.335938 43.570312 58.257812 C 43.433594 57.976562 43.183594 57.824219 42.914062 57.785156 C 42.910156 57.632812 42.984375 57.480469 43.097656 57.375 C 43.175781 57.210938 43.328125 57.082031 43.535156 57.082031 C 43.570312 57.082031 43.605469 57.085938 43.644531 57.09375 C 44.632812 57.296875 45.6875 57.394531 46.761719 57.394531 C 47.136719 57.394531 47.519531 57.378906 47.898438 57.355469 C 47.679688 57.441406 47.496094 57.601562 47.402344 57.824219 C 47.335938 57.941406 47.308594 58.074219 47.332031 58.210938 L 47.332031 58.214844 C 47.363281 58.636719 47.71875 58.886719 48.082031 58.925781 C 48.167969 58.945312 48.246094 58.960938 48.328125 58.960938 C 48.382812 58.960938 48.441406 58.953125 48.496094 58.9375 C 48.972656 58.804688 49.316406 58.253906 49.082031 57.773438 C 48.957031 57.511719 48.730469 57.363281 48.488281 57.308594 C 49.992188 57.164062 51.484375 56.824219 52.851562 56.300781 C 52.738281 56.390625 52.644531 56.503906 52.589844 56.636719 C 52.523438 56.753906 52.496094 56.882812 52.519531 57.023438 L 52.519531 57.027344 C 52.550781 57.453125 52.90625 57.699219 53.269531 57.738281 C 53.273438 57.742188 53.28125 57.742188 53.285156 57.742188 C 52.785156 57.832031 52.292969 57.941406 51.792969 58.007812 C 51.65625 58.023438 51.519531 58.027344 51.386719 58.027344 C 51.332031 58.132812 51.246094 58.226562 51.105469 58.273438 C 50.253906 58.582031 50.328125 59.6875 50.6875 60.703125 C 50.660156 60.746094 50.632812 60.792969 50.609375 60.84375 C 50.542969 60.964844 50.523438 61.09375 50.539062 61.234375 C 50.574219 61.65625 50.925781 61.90625 51.292969 61.949219 C 51.445312 62.183594 51.589844 62.371094 51.71875 62.488281 C 52.269531 62.980469 52.929688 63.316406 53.613281 63.597656 C 53.570312 63.652344 53.53125 63.714844 53.507812 63.785156 C 53.441406 63.902344 53.414062 64.03125 53.4375 64.167969 C 53.464844 64.59375 53.820312 64.847656 54.1875 64.882812 C 54.269531 64.902344 54.351562 64.917969 54.433594 64.917969 C 54.488281 64.917969 54.546875 64.910156 54.597656 64.894531 C 54.871094 64.820312 55.101562 64.605469 55.207031 64.347656 C 55.207031 64.347656 55.210938 64.351562 55.210938 64.355469 C 55.335938 64.460938 55.417969 64.617188 55.390625 64.820312 C 55.019531 67.460938 53.03125 69.269531 50.683594 69.269531 M 52.046875 67.125 C 51.683594 67.125 51.316406 67.320312 51.167969 67.664062 C 51.101562 67.78125 51.078125 67.910156 51.097656 68.046875 L 51.097656 68.050781 C 51.132812 68.476562 51.488281 68.726562 51.851562 68.761719 C 51.933594 68.785156 52.015625 68.800781 52.097656 68.800781 C 52.152344 68.800781 52.210938 68.792969 52.261719 68.777344 C 52.742188 68.640625 53.085938 68.097656 52.847656 67.609375 C 52.6875 67.277344 52.363281 67.125 52.046875 67.125 M 48.921875 64.277344 C 48.554688 64.277344 48.1875 64.472656 48.042969 64.816406 C 47.976562 64.933594 47.953125 65.0625 47.972656 65.199219 L 47.972656 65.203125 C 48.003906 65.625 48.359375 65.878906 48.726562 65.914062 C 48.808594 65.9375 48.890625 65.949219 48.972656 65.949219 C 49.027344 65.949219 49.082031 65.945312 49.136719 65.925781 C 49.617188 65.792969 49.957031 65.246094 49.726562 64.761719 C 49.5625 64.425781 49.238281 64.277344 48.921875 64.277344 M 46.3125 61.453125 C 45.945312 61.453125 45.578125 61.648438 45.433594 61.992188 C 45.367188 62.109375 45.34375 62.238281 45.363281 62.375 L 45.363281 62.378906 C 45.394531 62.800781 45.75 63.050781 46.117188 63.089844 C 46.199219 63.113281 46.28125 63.125 46.363281 63.125 C 46.417969 63.125 46.476562 63.121094 46.527344 63.101562 C 47.007812 62.96875 47.351562 62.421875 47.113281 61.9375 C 46.953125 61.601562 46.632812 61.453125 46.3125 61.453125 M 53.925781 57.640625 C 54.265625 57.421875 54.460938 56.984375 54.269531 56.582031 C 54.105469 56.253906 53.789062 56.101562 53.464844 56.101562 C 53.421875 56.101562 53.378906 56.105469 53.335938 56.109375 C 53.847656 55.890625 54.335938 55.648438 54.800781 55.378906 C 54.875 55.332031 54.957031 55.3125 55.039062 55.3125 C 55.292969 55.3125 55.527344 55.515625 55.527344 55.796875 L 55.527344 55.855469 L 55.507812 55.96875 L 55.511719 56.046875 C 55.460938 56.421875 55.289062 57.101562 55.003906 57.371094 C 54.691406 57.667969 54.464844 57.582031 54.070312 57.625 C 54.027344 57.632812 53.976562 57.636719 53.925781 57.640625 " fill-opacity="1" fill-rule="nonzero"/><path fill="#ffffff" d="M 43.644531 58.496094 C 43.53125 58.421875 43.421875 58.347656 43.304688 58.269531 L 43.113281 58.152344 L 43.050781 58.089844 C 42.960938 58 42.917969 57.890625 42.914062 57.785156 C 43.183594 57.824219 43.433594 57.976562 43.570312 58.257812 C 43.609375 58.335938 43.632812 58.414062 43.644531 58.496094 " fill-opacity="1" fill-rule="nonzero"/><path fill="#ffffff" d="M 48.328125 58.960938 C 48.246094 58.960938 48.167969 58.945312 48.082031 58.925781 C 47.71875 58.886719 47.363281 58.636719 47.332031 58.214844 L 47.332031 58.210938 C 47.308594 58.074219 47.335938 57.941406 47.402344 57.824219 C 47.496094 57.601562 47.679688 57.441406 47.898438 57.355469 C 48.097656 57.34375 48.292969 57.328125 48.488281 57.308594 C 48.730469 57.363281 48.957031 57.511719 49.082031 57.773438 C 49.316406 58.253906 48.972656 58.804688 48.496094 58.9375 C 48.441406 58.953125 48.382812 58.960938 48.328125 58.960938 " fill-opacity="1" fill-rule="nonzero"/><path fill="#ffffff" d="M 53.285156 57.742188 C 53.28125 57.742188 53.273438 57.742188 53.269531 57.738281 C 52.90625 57.699219 52.550781 57.453125 52.519531 57.027344 L 52.519531 57.023438 C 52.496094 56.882812 52.523438 56.753906 52.589844 56.636719 C 52.644531 56.503906 52.738281 56.390625 52.851562 56.300781 C 53.011719 56.242188 53.175781 56.175781 53.335938 56.109375 C 53.378906 56.105469 53.421875 56.101562 53.464844 56.101562 C 53.789062 56.101562 54.105469 56.253906 54.269531 56.582031 C 54.460938 56.984375 54.265625 57.421875 53.925781 57.640625 C 53.710938 57.667969 53.5 57.703125 53.285156 57.742188 " fill-opacity="1" fill-rule="nonzero"/><path fill="#ffffff" d="M 51.292969 61.949219 C 50.925781 61.90625 50.574219 61.65625 50.539062 61.234375 C 50.523438 61.09375 50.542969 60.964844 50.609375 60.84375 C 50.632812 60.792969 50.660156 60.746094 50.6875 60.703125 C 50.851562 61.160156 51.070312 61.601562 51.292969 61.949219 " fill-opacity="1" fill-rule="nonzero"/><path fill="#ffffff" d="M 46.363281 63.125 C 46.28125 63.125 46.199219 63.113281 46.117188 63.089844 C 45.75 63.050781 45.394531 62.800781 45.363281 62.378906 L 45.363281 62.375 C 45.34375 62.238281 45.367188 62.109375 45.433594 61.992188 C 45.578125 61.648438 45.945312 61.453125 46.3125 61.453125 C 46.632812 61.453125 46.953125 61.601562 47.113281 61.9375 C 47.351562 62.421875 47.007812 62.96875 46.527344 63.101562 C 46.476562 63.121094 46.417969 63.125 46.363281 63.125 " fill-opacity="1" fill-rule="nonzero"/><path fill="#ffffff" d="M 48.972656 65.949219 C 48.890625 65.949219 48.808594 65.9375 48.726562 65.914062 C 48.359375 65.878906 48.003906 65.625 47.972656 65.203125 L 47.972656 65.199219 C 47.953125 65.0625 47.976562 64.933594 48.042969 64.816406 C 48.1875 64.472656 48.554688 64.277344 48.921875 64.277344 C 49.238281 64.277344 49.5625 64.425781 49.726562 64.761719 C 49.957031 65.246094 49.617188 65.792969 49.136719 65.925781 C 49.082031 65.945312 49.027344 65.949219 48.972656 65.949219 " fill-opacity="1" fill-rule="nonzero"/><path fill="#ffffff" d="M 54.433594 64.917969 C 54.351562 64.917969 54.269531 64.902344 54.1875 64.882812 C 53.820312 64.847656 53.464844 64.59375 53.4375 64.167969 C 53.414062 64.03125 53.441406 63.902344 53.507812 63.785156 C 53.53125 63.714844 53.570312 63.652344 53.613281 63.597656 C 54.046875 63.78125 54.496094 63.9375 54.929688 64.101562 C 55.066406 64.148438 55.152344 64.242188 55.207031 64.347656 C 55.101562 64.605469 54.871094 64.820312 54.597656 64.894531 C 54.546875 64.910156 54.488281 64.917969 54.433594 64.917969 " fill-opacity="1" fill-rule="nonzero"/><path fill="#ffffff" d="M 52.097656 68.800781 C 52.015625 68.800781 51.933594 68.785156 51.851562 68.761719 C 51.488281 68.726562 51.132812 68.476562 51.097656 68.050781 L 51.097656 68.046875 C 51.078125 67.910156 51.101562 67.78125 51.167969 67.664062 C 51.316406 67.320312 51.683594 67.125 52.046875 67.125 C 52.363281 67.125 52.6875 67.277344 52.847656 67.609375 C 53.085938 68.097656 52.742188 68.640625 52.261719 68.777344 C 52.210938 68.792969 52.152344 68.800781 52.097656 68.800781 " fill-opacity="1" fill-rule="nonzero"/><path fill="#ff9628" d="M 47.527344 30.785156 C 47.277344 30.785156 47.007812 30.558594 46.972656 30.285156 C 46.957031 30.136719 46.992188 29.980469 46.988281 29.832031 L 46.945312 29.664062 L 46.996094 29.464844 C 46.980469 29.214844 47.132812 28.945312 47.457031 28.945312 L 47.882812 28.945312 C 48.285156 28.945312 48.449219 29.355469 48.304688 29.679688 C 48.175781 29.972656 48.007812 30.242188 47.878906 30.535156 C 47.800781 30.714844 47.667969 30.785156 47.527344 30.785156 " fill-opacity="1" fill-rule="nonzero"/><path fill="#b8b8b8" d="M 46.359375 51.097656 C 45.789062 49.511719 47.65625 49.453125 47.3125 49.179688 C 47.183594 49.074219 47.058594 48.980469 46.929688 48.898438 C 47.078125 48.890625 47.222656 48.886719 47.367188 48.886719 C 48.207031 48.886719 49.023438 49.007812 49.871094 49.132812 C 49.839844 49.554688 49.558594 50.007812 49.113281 50.261719 C 48.53125 50.589844 47.332031 50.109375 47.148438 50.972656 C 46.882812 51.011719 46.621094 51.050781 46.359375 51.097656 " fill-opacity="1" fill-rule="nonzero"/><path fill="#cccccc" d="M 49.871094 49.132812 C 49.023438 49.007812 48.207031 48.886719 47.367188 48.886719 C 47.222656 48.886719 47.078125 48.890625 46.929688 48.898438 C 46.324219 48.5 45.6875 48.292969 44.886719 48.0625 C 42.855469 47.488281 42.207031 45.078125 44.21875 44.714844 C 44.769531 44.617188 45.398438 44.621094 45.96875 44.554688 C 47.496094 44.375 48.820312 43.585938 48.785156 42.347656 C 48.78125 42.058594 48.34375 41.695312 48.03125 41.535156 C 46.402344 40.714844 44.414062 39.535156 45.589844 38.414062 C 46.25 39.179688 47.492188 39.761719 49.117188 40.375 C 50.617188 40.941406 52.414062 41.554688 53.429688 42.636719 C 54.578125 43.855469 51.929688 44.761719 50.992188 45.082031 C 49.863281 45.46875 48.746094 45.355469 47.511719 45.445312 C 46.121094 45.542969 45.097656 45.84375 45.140625 46.957031 C 45.167969 47.652344 46.847656 47.835938 47.402344 47.878906 C 48.050781 47.921875 48.429688 47.933594 49.320312 48.277344 C 49.734375 48.4375 49.890625 48.769531 49.871094 49.132812 " fill-opacity="1" fill-rule="nonzero"/><path fill="#000000" d="M 46.878906 52.042969 C 46.621094 51.675781 46.453125 51.363281 46.359375 51.097656 C 46.621094 51.050781 46.882812 51.011719 47.148438 50.972656 C 47.097656 51.203125 47.121094 51.527344 47.242188 51.992188 C 47.121094 52.007812 47 52.027344 46.878906 52.042969 " fill-opacity="1" fill-rule="nonzero"/><path fill="#1b8076" d="M 47.539062 52.859375 C 47.269531 52.5625 47.050781 52.289062 46.878906 52.042969 C 47 52.027344 47.121094 52.007812 47.242188 51.992188 C 47.308594 52.238281 47.40625 52.527344 47.539062 52.859375 " fill-opacity="1" fill-rule="nonzero"/><path fill="#242424" d="M 78.410156 46.191406 C 77.730469 39.238281 76.980469 32.296875 74.671875 25.667969 C 73.066406 21.0625 70.828125 16.449219 67.941406 12.4375 C 66.800781 10.722656 65.429688 9.121094 63.734375 7.65625 C 60.273438 4.660156 55.832031 1.9375 51.199219 1.613281 C 47.910156 1.035156 43.289062 1.253906 42.054688 4.878906 C 41.332031 6.996094 41.992188 8.925781 42.9375 10.859375 C 44.410156 13.875 46.046875 16.515625 46.914062 19.824219 C 47.007812 20.171875 47.476562 20.304688 47.726562 20.039062 C 50.949219 16.613281 54.195312 13.75 59.179688 14.089844 C 64.59375 14.453125 69.058594 18.664062 71.410156 23.265625 C 71.445312 23.390625 71.476562 23.515625 71.511719 23.640625 C 71.542969 23.773438 71.617188 23.855469 71.710938 23.914062 C 72.800781 26.226562 73.535156 28.75 74.125 31.300781 C 74.359375 36.667969 74.066406 41.9375 71.53125 46.84375 C 68.945312 51.847656 64.183594 57.238281 58.441406 58.332031 C 58.21875 58.375 58.117188 58.523438 58.097656 58.6875 C 57.863281 58.945312 57.980469 59.5 58.449219 59.535156 C 62.539062 59.8125 66.375 58.824219 70.132812 57.246094 C 72.773438 56.136719 75.988281 54.265625 77.917969 51.921875 C 77.941406 52.054688 77.964844 52.183594 77.980469 52.3125 L 78.003906 52.371094 C 78.417969 57.496094 78.691406 62.636719 78.855469 67.777344 C 78.878906 68.40625 79.847656 68.40625 79.824219 67.777344 C 79.59375 60.566406 79.117188 53.371094 78.410156 46.191406 " fill-opacity="1" fill-rule="nonzero"/><path fill="#242424" d="M 41.753906 61.460938 C 41.636719 61.496094 41.527344 61.519531 41.410156 61.546875 C 36.121094 61.851562 32.597656 57.777344 29.71875 53.808594 C 26.527344 49.417969 25.570312 44.222656 24.894531 38.945312 C 24.882812 38.847656 24.84375 38.773438 24.792969 38.707031 C 24.691406 38.246094 23.894531 38.300781 23.839844 38.859375 C 23.238281 44.902344 23.1875 50.558594 27.109375 55.519531 C 30.71875 60.089844 35.546875 64.1875 41.566406 62.515625 C 41.675781 62.507812 41.777344 62.507812 41.882812 62.496094 C 42.175781 62.464844 42.328125 62.230469 42.34375 61.996094 C 42.378906 61.6875 42.140625 61.335938 41.753906 61.460938 " fill-opacity="1" fill-rule="nonzero"/><path fill="#ff65b8" d="M 33.46875 31.714844 C 32.84375 31.714844 32.84375 32.6875 33.46875 32.6875 C 34.09375 32.6875 34.09375 31.714844 33.46875 31.714844 " fill-opacity="1" fill-rule="nonzero"/><path fill="#ff65b8" d="M 35.976562 30.660156 C 35.351562 30.660156 35.351562 31.632812 35.976562 31.632812 C 36.605469 31.632812 36.605469 30.660156 35.976562 30.660156 " fill-opacity="1" fill-rule="nonzero"/><path fill="#ff65b8" d="M 35.410156 32.6875 L 35.328125 32.6875 C 34.703125 32.6875 34.703125 33.664062 35.328125 33.664062 L 35.410156 33.664062 C 36.035156 33.664062 36.035156 32.6875 35.410156 32.6875 " fill-opacity="1" fill-rule="nonzero"/><path fill="#ff65b8" d="M 37.679688 31.882812 C 37.324219 32.117188 37.589844 32.832031 38.128906 32.753906 L 38.195312 32.742188 C 38.34375 32.722656 38.515625 32.546875 38.539062 32.402344 L 38.550781 32.332031 C 38.625 31.792969 37.917969 31.523438 37.679688 31.882812 " fill-opacity="1" fill-rule="nonzero"/><path fill="#ff65b8" d="M 32.417969 34.152344 L 32.417969 34.230469 C 32.417969 34.859375 33.386719 34.859375 33.386719 34.230469 L 33.386719 34.152344 C 33.386719 33.523438 32.417969 33.523438 32.417969 34.152344 " fill-opacity="1" fill-rule="nonzero"/><path fill="#ff65b8" d="M 55.878906 30.738281 C 55.253906 30.738281 55.253906 31.714844 55.878906 31.714844 C 56.507812 31.714844 56.507812 30.738281 55.878906 30.738281 " fill-opacity="1" fill-rule="nonzero"/><path fill="#ff65b8" d="M 57.980469 29.929688 C 57.355469 29.929688 57.355469 30.902344 57.980469 30.902344 C 58.605469 30.902344 58.605469 29.929688 57.980469 29.929688 " fill-opacity="1" fill-rule="nonzero"/><path fill="#ff65b8" d="M 60.410156 30.496094 C 59.78125 30.496094 59.78125 31.472656 60.410156 31.472656 C 61.035156 31.472656 61.035156 30.496094 60.410156 30.496094 " fill-opacity="1" fill-rule="nonzero"/><path fill="#ff65b8" d="M 57.980469 31.632812 C 57.355469 31.632812 57.355469 32.609375 57.980469 32.609375 C 58.605469 32.609375 58.605469 31.632812 57.980469 31.632812 " fill-opacity="1" fill-rule="nonzero"/><path fill="#ff65b8" d="M 60.25 32.121094 C 59.625 32.121094 59.625 33.097656 60.25 33.097656 C 60.875 33.097656 60.875 32.121094 60.25 32.121094 " fill-opacity="1" fill-rule="nonzero"/></svg>