<svg xmlns="http://www.w3.org/2000/svg" xmlns:xlink="http://www.w3.org/1999/xlink" width="128" zoomAndPan="magnify" viewBox="0 0 96 95.999999" height="128" preserveAspectRatio="xMidYMid meet" version="1.0"><defs><clipPath id="9dfd4e0d3c"><path d="M 15.660156 1 L 80 1 L 80 96 L 15.660156 96 Z M 15.660156 1 " clip-rule="nonzero"/></clipPath></defs><g clip-path="url(#9dfd4e0d3c)"><path fill="#060001" d="M 79.609375 66.402344 C 79.472656 61.957031 73.523438 40.8125 74.621094 32.285156 C 76.277344 19.449219 68.128906 2.128906 52.160156 1.148438 C 33.617188 0.0117188 25.4375 10.304688 23.480469 21.082031 C 22.832031 24.675781 23.980469 30.519531 23.15625 36.113281 C 21.304688 48.675781 15.660156 63.238281 15.660156 68.46875 C 15.660156 86.492188 31.785156 95.96875 50.53125 95.589844 C 69.28125 95.214844 80.167969 84.414062 79.609375 66.402344 Z M 79.609375 66.402344 " fill-opacity="1" fill-rule="nonzero"/></g><path fill="#ffffff" d="M 64.546875 42.976562 C 63.242188 39.382812 65.023438 35.386719 65.734375 31.484375 C 67.152344 23.695312 65.523438 17.8125 59.007812 16.507812 C 50.207031 14.871094 49.878906 27.617188 49.878906 27.617188 L 45.226562 27.316406 C 45.226562 27.316406 47.601562 14.871094 38.800781 14.871094 C 32.335938 14.871094 29.351562 22.714844 30.042969 31.042969 C 30.367188 34.9375 31.605469 38.019531 30.328125 41.667969 C 25.734375 54.75 19.640625 71.253906 28.34375 80.683594 C 33.460938 86.226562 42.652344 88.960938 55.09375 86.863281 C 57.625 86.4375 60.082031 85.609375 62.296875 84.316406 C 76.140625 76.222656 69.574219 56.835938 64.546875 42.976562 Z M 64.546875 42.976562 " fill-opacity="1" fill-rule="nonzero"/><path fill="#ed9b42" d="M 47.046875 25.191406 C 50.371094 25.195312 53.796875 28.320312 53.796875 28.320312 C 53.796875 28.320312 51.480469 31.902344 46.585938 31.867188 C 42.617188 31.839844 40.742188 27.734375 40.742188 27.734375 C 40.742188 27.734375 43.722656 25.1875 47.046875 25.191406 Z M 47.046875 25.191406 " fill-opacity="1" fill-rule="nonzero"/><path fill="#d71e32" d="M 40.742188 27.734375 C 40.742188 27.734375 42.621094 31.839844 46.585938 31.867188 C 51.480469 31.902344 53.800781 28.320312 53.800781 28.320312 C 53.800781 28.320312 45.441406 29.035156 40.742188 27.734375 Z M 40.742188 27.734375 " fill-opacity="0.2" fill-rule="nonzero"/><path fill="#f5cfd3" d="M 33.539062 27.472656 C 33.453125 28.542969 34.550781 29.503906 35.988281 29.617188 C 37.421875 29.726562 38.65625 28.953125 38.738281 27.886719 C 38.824219 26.820312 37.730469 25.859375 36.292969 25.746094 C 34.859375 25.632812 33.625 26.40625 33.542969 27.472656 Z M 33.539062 27.472656 " fill-opacity="1" fill-rule="nonzero"/><path fill="#f5cfd3" d="M 55.941406 27.894531 C 55.90625 28.964844 57.046875 29.867188 58.488281 29.914062 C 59.925781 29.960938 61.121094 29.128906 61.152344 28.054688 C 61.1875 26.984375 60.046875 26.078125 58.609375 26.03125 C 57.167969 25.988281 55.976562 26.820312 55.941406 27.894531 Z M 55.941406 27.894531 " fill-opacity="1" fill-rule="nonzero"/><path fill="#060001" d="M 58.035156 20.433594 C 56.601562 19.863281 55.058594 20.210938 54.007812 21.335938 C 53.332031 22.046875 52.949219 23.003906 52.953125 23.957031 C 52.953125 24.117188 53.074219 24.253906 53.230469 24.277344 C 53.25 24.277344 53.265625 24.28125 53.28125 24.28125 C 53.421875 24.28125 53.546875 24.191406 53.589844 24.054688 C 53.839844 23.28125 54.253906 22.628906 54.800781 22.167969 C 55.589844 21.496094 56.542969 21.28125 57.484375 21.566406 C 58.578125 21.902344 59.46875 22.847656 59.8125 24.042969 C 59.855469 24.199219 60.007812 24.296875 60.171875 24.277344 C 60.332031 24.253906 60.449219 24.117188 60.449219 23.953125 C 60.449219 22.394531 59.503906 21.011719 58.035156 20.429688 Z M 58.035156 20.433594 " fill-opacity="1" fill-rule="nonzero"/><path fill="#060001" d="M 39.78125 20.433594 C 38.347656 19.863281 36.804688 20.210938 35.757812 21.335938 C 35.082031 22.046875 34.695312 23.003906 34.703125 23.957031 C 34.703125 24.117188 34.820312 24.253906 34.980469 24.277344 C 34.996094 24.277344 35.011719 24.28125 35.027344 24.28125 C 35.167969 24.28125 35.296875 24.191406 35.339844 24.054688 C 35.585938 23.28125 36.003906 22.628906 36.546875 22.167969 C 37.335938 21.496094 38.289062 21.28125 39.234375 21.566406 C 40.328125 21.902344 41.21875 22.847656 41.558594 24.042969 C 41.601562 24.199219 41.757812 24.296875 41.917969 24.277344 C 42.082031 24.253906 42.199219 24.117188 42.199219 23.953125 C 42.199219 22.394531 41.25 21.011719 39.78125 20.429688 Z M 39.78125 20.433594 " fill-opacity="1" fill-rule="nonzero"/><path fill="#ed9b42" d="M 56.363281 95.589844 C 55.597656 95.589844 55.042969 94.96875 55.265625 94.351562 C 56.609375 90.59375 62.652344 88.769531 67.675781 88.769531 C 72.703125 88.769531 75.960938 90.617188 75.902344 94.640625 C 75.894531 95.167969 75.382812 95.59375 74.753906 95.59375 L 56.359375 95.59375 Z M 56.363281 95.589844 " fill-opacity="1" fill-rule="nonzero"/><path fill="#ed9b42" d="M 40.863281 95.589844 C 41.628906 95.589844 42.183594 94.96875 41.960938 94.351562 C 40.621094 90.59375 34.578125 88.769531 29.550781 88.769531 C 24.390625 88.769531 21.265625 90.617188 21.324219 94.640625 C 21.332031 95.167969 21.847656 95.59375 22.472656 95.59375 L 40.867188 95.59375 Z M 40.863281 95.589844 " fill-opacity="1" fill-rule="nonzero"/><path fill="#060001" d="M 23.804688 39.710938 L 22.855469 57.039062 C 68.78125 41.019531 36.515625 38.402344 23.804688 39.710938 Z M 23.804688 39.710938 " fill-opacity="1" fill-rule="nonzero"/><path fill="#060001" d="M 69.546875 39.710938 L 70.5 57.039062 C 24.570312 41.019531 56.835938 38.402344 69.546875 39.710938 Z M 69.546875 39.710938 " fill-opacity="1" fill-rule="nonzero"/></svg>