<svg xmlns="http://www.w3.org/2000/svg" xmlns:xlink="http://www.w3.org/1999/xlink" width="128" zoomAndPan="magnify" viewBox="0 0 96 95.999999" height="128" preserveAspectRatio="xMidYMid meet" version="1.0"><defs><clipPath id="7bd508fc52"><path d="M 81.429688 38.121094 L 92.46875 38.121094 L 92.46875 72.652344 L 81.429688 72.652344 Z M 81.429688 38.121094 " clip-rule="nonzero"/></clipPath></defs><path fill="#ecc947" d="M 27.9375 84.554688 C 27.9375 84.554688 21.09375 87.667969 18.78125 90.195312 C 15.722656 93.546875 18.589844 95.792969 27.9375 94.507812 C 37.28125 93.226562 40.023438 92.800781 40.023438 92.800781 L 27.9375 84.554688 " fill-opacity="1" fill-rule="nonzero"/><path fill="#ecc947" d="M 76.640625 84.601562 C 76.640625 84.601562 84.003906 87.316406 85.792969 90.242188 C 87.101562 92.382812 85.984375 95.835938 76.640625 94.554688 C 67.292969 93.269531 63.828125 92.507812 63.828125 92.507812 L 76.640625 84.601562 " fill-opacity="1" fill-rule="nonzero"/><path fill="#242122" d="M 53.394531 94.074219 L 49.503906 94.074219 C 33.886719 94.074219 22.253906 89.558594 22.253906 73.933594 L 22.253906 33.550781 C 22.253906 17.925781 35.027344 5.140625 50.640625 5.140625 L 54.535156 5.140625 C 70.148438 5.140625 82.921875 17.925781 82.921875 33.550781 L 82.921875 73.933594 C 82.921875 89.558594 69.007812 94.074219 53.394531 94.074219 " fill-opacity="1" fill-rule="nonzero"/><path fill="#f5f5f5" d="M 80.363281 70.160156 C 80.363281 83.882812 68.097656 91.3125 52.757812 91.3125 C 37.417969 91.3125 24.8125 83.882812 24.8125 70.160156 C 24.8125 56.441406 37.417969 41.628906 52.757812 41.628906 C 68.097656 41.628906 80.363281 56.441406 80.363281 70.160156 " fill-opacity="1" fill-rule="nonzero"/><path fill="#f5f5f5" d="M 78.621094 36.246094 C 78.621094 50.648438 66.964844 62.324219 52.589844 62.324219 C 38.210938 62.324219 26.554688 50.648438 26.554688 36.246094 C 26.554688 21.839844 38.210938 10.164062 52.589844 10.164062 C 66.964844 10.164062 78.621094 21.839844 78.621094 36.246094 " fill-opacity="1" fill-rule="nonzero"/><path fill="#242122" d="M 23.578125 38.683594 C 24.5 38.683594 3.21875 54.199219 17.605469 72.417969 C 21.546875 77.410156 22.367188 55.625 23.285156 66.527344 " fill-opacity="1" fill-rule="nonzero"/><path fill="#242122" d="M 49.957031 32.527344 C 49.957031 37.933594 45.582031 42.3125 40.1875 42.3125 C 34.789062 42.3125 30.414062 37.933594 30.414062 32.527344 C 30.414062 27.117188 34.789062 27.140625 40.1875 27.140625 C 45.582031 27.140625 49.957031 27.117188 49.957031 32.527344 " fill-opacity="1" fill-rule="nonzero"/><path fill="#242122" d="M 75.816406 32.527344 C 75.816406 37.933594 71.441406 42.3125 66.042969 42.3125 C 60.648438 42.3125 56.273438 37.933594 56.273438 32.527344 C 56.273438 27.117188 60.648438 27.140625 66.042969 27.140625 C 71.441406 27.140625 75.816406 27.117188 75.816406 32.527344 " fill-opacity="1" fill-rule="nonzero"/><path fill="#ecc947" d="M 49.070312 37.722656 L 57.191406 37.722656 C 57.191406 37.722656 56.519531 42.496094 53.101562 42.714844 C 49.871094 42.921875 49.070312 37.722656 49.070312 37.722656 " fill-opacity="1" fill-rule="nonzero"/><path fill="#edecec" d="M 61.003906 61.871094 C 57.648438 61.871094 54.265625 63.800781 53.132812 66.511719 C 51.996094 63.800781 48.613281 61.871094 45.257812 61.871094 C 40.914062 61.871094 37.386719 65.109375 37.386719 69.105469 C 37.386719 71.730469 38.410156 74.34375 40.09375 76.75 C 43.027344 80.9375 47.984375 84.511719 53.132812 86.472656 C 61.230469 83.382812 68.875 76.308594 68.875 69.105469 C 68.875 65.109375 65.351562 61.871094 61.003906 61.871094 " fill-opacity="1" fill-rule="nonzero"/><path fill="#242122" d="M 71.738281 14.207031 L 53.132812 6.773438 L 30.441406 14.988281 L 25.902344 31.632812 L 26.695312 31.632812 C 26.695312 31.632812 32.808594 10.914062 52.480469 22.128906 C 72.152344 10.914062 78.269531 31.632812 78.269531 31.632812 L 79.058594 31.632812 L 71.738281 14.207031 " fill-opacity="1" fill-rule="nonzero"/><path fill="#242122" d="M 51.699219 5.40625 C 51.699219 5.40625 53.3125 0.605469 58.289062 1.347656 C 58.289062 1.347656 55.300781 4.519531 56.445312 6.808594 " fill-opacity="1" fill-rule="nonzero"/><path fill="#242122" d="M 53.253906 5.40625 C 53.253906 5.40625 51.640625 0.605469 46.664062 1.347656 C 46.664062 1.347656 49.648438 4.519531 48.507812 6.808594 " fill-opacity="1" fill-rule="nonzero"/><g clip-path="url(#7bd508fc52)"><path fill="#242122" d="M 81.488281 38.148438 C 80.566406 38.148438 101.847656 53.664062 87.460938 71.882812 C 83.519531 76.875 82.699219 55.089844 81.78125 65.992188 " fill-opacity="1" fill-rule="nonzero"/></g><path fill="#242122" d="M 74.46875 33.429688 C 76.140625 32.800781 77.757812 32.058594 79.3125 31.171875 C 80.671875 30.398438 79.449219 28.292969 78.082031 29.070312 C 76.710938 29.847656 75.296875 30.527344 73.820312 31.082031 C 72.371094 31.628906 73 33.984375 74.46875 33.429688 " fill-opacity="1" fill-rule="nonzero"/><path fill="#242122" d="M 32.101562 30.578125 C 29.710938 29.175781 27.121094 28.046875 24.640625 26.8125 C 23.242188 26.121094 22.007812 28.222656 23.410156 28.917969 C 25.894531 30.152344 28.480469 31.28125 30.875 32.679688 C 32.230469 33.476562 33.457031 31.367188 32.101562 30.578125 " fill-opacity="1" fill-rule="nonzero"/><path fill="#242122" d="M 52.585938 33.054688 C 55.5 33.054688 57.9375 35.0625 58.617188 37.769531 C 58.742188 37.28125 58.8125 36.769531 58.8125 36.246094 C 58.8125 32.800781 56.027344 30.007812 52.585938 30.007812 C 49.148438 30.007812 46.363281 32.800781 46.363281 36.246094 C 46.363281 36.769531 46.433594 37.28125 46.558594 37.769531 C 47.238281 35.0625 49.675781 33.054688 52.585938 33.054688 " fill-opacity="1" fill-rule="nonzero"/><path fill="#ffffff" d="M 76.421875 32.636719 L 72.5625 33.59375 L 71.925781 37.796875 L 71.417969 33.851562 L 68.027344 32.257812 L 71.191406 31.875 L 71.925781 26.714844 L 72.75 31.96875 L 76.421875 32.636719 " fill-opacity="1" fill-rule="nonzero"/></svg>