<svg xmlns="http://www.w3.org/2000/svg" xmlns:xlink="http://www.w3.org/1999/xlink" width="128" zoomAndPan="magnify" viewBox="0 0 96 95.999999" height="128" preserveAspectRatio="xMidYMid meet" version="1.0"><path fill="#f99900" d="M 33.226562 93.875 C 33.226562 93.875 36.738281 86.636719 32.15625 83.304688 C 27.574219 79.972656 14.679688 84.453125 15.695312 86.191406 C 16.707031 87.929688 21.535156 86.914062 21.070312 88.5 C 20.601562 90.085938 20.644531 93.648438 22.902344 93.488281 C 27.015625 93.199219 28.578125 90.273438 29.253906 91.820312 C 29.929688 93.367188 32.460938 95.980469 33.226562 93.875 Z M 33.226562 93.875 " fill-opacity="1" fill-rule="nonzero"/><path fill="#f99900" d="M 58.332031 93.875 C 58.332031 93.875 54.820312 86.636719 59.40625 83.304688 C 63.988281 79.972656 76.882812 84.453125 75.871094 86.191406 C 74.859375 87.929688 70.027344 86.914062 70.496094 88.5 C 70.960938 90.085938 70.921875 93.648438 68.664062 93.488281 C 64.546875 93.199219 62.988281 90.273438 62.3125 91.820312 C 61.632812 93.367188 59.101562 95.980469 58.332031 93.875 Z M 58.332031 93.875 " fill-opacity="1" fill-rule="nonzero"/><path fill="#232020" d="M 58.371094 53.148438 C 58.855469 52.988281 59.34375 52.835938 59.835938 52.699219 C 61.425781 52.261719 66.300781 50.5 72.199219 44.324219 C 77.886719 38.371094 78.058594 31.179688 74.867188 28.09375 C 73.90625 27.164062 73.242188 26.054688 72.875 24.765625 C 71.503906 19.890625 66.726562 8.703125 51.238281 4.863281 C 31.652344 0.0078125 13.195312 17.097656 15.964844 36.652344 C 16.082031 37.460938 16.0625 38.265625 15.914062 39.070312 C 15.453125 41.539062 15.035156 47.5 20.5625 51.175781 C 27.488281 55.78125 46.242188 57.132812 58.371094 53.148438 Z M 58.371094 53.148438 " fill-opacity="1" fill-rule="nonzero"/><path fill="#232020" d="M 61.777344 50.230469 C 61.777344 50.230469 75.042969 43.851562 79.1875 46.6875 C 83.335938 49.523438 69.238281 59.917969 69.238281 59.917969 C 69.238281 59.917969 78.433594 78.992188 62.835938 85.90625 C 44.964844 93.824219 26.332031 88.902344 20.5625 80.476562 C 12.828125 69.183594 21.128906 57.585938 23.628906 52.726562 C 26.125 47.867188 61.777344 50.230469 61.777344 50.230469 Z M 61.777344 50.230469 " fill-opacity="1" fill-rule="nonzero"/><path fill="#f5f0ea" d="M 61.503906 52.367188 C 61.503906 52.367188 64.855469 59.5625 64.148438 68.542969 C 63.4375 77.523438 60.019531 83.886719 48.648438 84.476562 C 37.28125 85.070312 29.164062 83.046875 26.011719 76.8125 C 23.214844 71.285156 27.710938 54.261719 27.710938 54.261719 C 27.710938 54.261719 19.257812 51.566406 21.207031 39.65625 C 21.320312 38.984375 21.328125 38.3125 21.234375 37.636719 C 20.960938 35.703125 20.472656 31.359375 20.910156 27.546875 C 21.457031 22.898438 24.941406 12.898438 32.875 16.089844 C 40.804688 19.28125 43.894531 34.988281 43.894531 34.988281 L 46.144531 34.636719 C 46.144531 34.636719 42.945312 11.953125 52.425781 12.070312 C 61.027344 12.179688 66.796875 19.199219 68.054688 26.679688 C 68.277344 28.082031 68.8125 29.351562 69.660156 30.492188 C 71.304688 32.65625 73.539062 36.953125 71.011719 42.316406 C 67.347656 50.113281 61.503906 52.367188 61.503906 52.367188 Z M 61.503906 52.367188 " fill-opacity="1" fill-rule="nonzero"/><path fill="#232020" d="M 21.90625 48.457031 C 21.90625 48.457031 35.136719 57.164062 36.195312 65 C 37.023438 71.140625 34.652344 71.378906 32.167969 70.316406 C 29.683594 69.25 26.839844 64.414062 23.046875 64.414062 L 25.183594 53.523438 C 25.183594 53.523438 21.953125 51.53125 21.90625 48.457031 Z M 21.90625 48.457031 " fill-opacity="1" fill-rule="nonzero"/><path fill="#f99900" d="M 39.132812 35.464844 C 39.375 36.988281 42.175781 36.886719 45.636719 36.339844 C 49.09375 35.792969 51.90625 35.003906 51.664062 33.480469 C 51.421875 31.957031 48.417969 31.171875 44.957031 31.714844 C 41.5 32.257812 38.890625 33.941406 39.132812 35.464844 Z M 39.132812 35.464844 " fill-opacity="1" fill-rule="nonzero"/><path fill="#232020" d="M 27.769531 34.964844 C 29.023438 33.320312 30.757812 31.96875 32.804688 31.578125 C 33.777344 31.398438 34.75 31.601562 35.710938 31.726562 C 36.757812 31.867188 37.753906 32.171875 38.796875 32.367188 C 38.832031 32.375 38.855469 32.363281 38.875 32.335938 C 38.894531 32.304688 38.890625 32.277344 38.871094 32.246094 C 38.601562 31.910156 38.296875 31.609375 37.949219 31.351562 C 37.035156 30.640625 35.894531 30.164062 34.71875 30.132812 C 33.367188 30.144531 32.109375 30.496094 30.945312 31.1875 C 29.484375 32.101562 28.386719 33.339844 27.652344 34.894531 C 27.628906 34.9375 27.640625 34.972656 27.683594 34.992188 C 27.726562 35.015625 27.757812 35.007812 27.78125 34.964844 Z M 27.769531 34.964844 " fill-opacity="1" fill-rule="nonzero"/><path fill="#232020" d="M 60.914062 27.335938 C 58.992188 26.566406 56.808594 26.300781 54.851562 27.015625 C 53.925781 27.359375 53.195312 28.03125 52.4375 28.632812 C 51.609375 29.289062 50.910156 30.0625 50.121094 30.765625 C 50.09375 30.789062 50.066406 30.796875 50.03125 30.777344 C 50 30.761719 49.984375 30.734375 49.992188 30.699219 C 50.050781 30.273438 50.15625 29.859375 50.316406 29.457031 C 50.738281 28.378906 51.476562 27.382812 52.460938 26.753906 C 53.632812 26.070312 54.894531 25.726562 56.253906 25.722656 C 57.976562 25.757812 59.554688 26.253906 60.988281 27.214844 C 61.03125 27.238281 61.042969 27.273438 61.015625 27.316406 C 60.992188 27.355469 60.960938 27.367188 60.917969 27.34375 Z M 60.914062 27.335938 " fill-opacity="1" fill-rule="nonzero"/></svg>