<svg xmlns="http://www.w3.org/2000/svg" xmlns:xlink="http://www.w3.org/1999/xlink" width="128" zoomAndPan="magnify" viewBox="0 0 96 95.999999" height="128" preserveAspectRatio="xMidYMid meet" version="1.0"><defs><clipPath id="4e49accd3d"><path d="M 2.53125 1 L 93.28125 1 L 93.28125 96 L 2.53125 96 Z M 2.53125 1 " clip-rule="nonzero"/></clipPath><clipPath id="b75e4727de"><path d="M 2.53125 1 L 93.28125 1 L 93.28125 96 L 2.53125 96 Z M 2.53125 1 " clip-rule="nonzero"/></clipPath></defs><g clip-path="url(#4e49accd3d)"><path fill="#1e1e1e" d="M 92.765625 31.457031 C 92.507812 33.382812 92.101562 35.289062 91.558594 37.152344 C 89.558594 44.011719 85.726562 50.269531 80.503906 55.136719 C 80.503906 55.238281 80.5 55.339844 80.5 55.441406 C 80.324219 62.699219 79.535156 69.917969 78.746094 77.128906 C 78.738281 77.179688 78.726562 77.222656 78.707031 77.265625 C 78.019531 81.628906 75.75 85.277344 72.496094 88.015625 C 73.5625 88.414062 74.5625 88.972656 75.492188 89.636719 C 76.546875 90.386719 77.746094 91.300781 78.410156 92.4375 C 79.941406 95.046875 76.183594 95.382812 74.550781 95.523438 C 68.808594 96 62.984375 95.183594 57.304688 94.394531 C 56.4375 94.558594 55.570312 94.699219 54.703125 94.824219 C 49.824219 95.53125 44.910156 95.808594 40.039062 94.90625 C 39.503906 94.804688 38.964844 94.691406 38.421875 94.570312 C 37.253906 94.796875 36.007812 94.835938 34.832031 94.945312 C 30.195312 95.382812 25.4375 95.8125 20.785156 95.445312 C 19.820312 95.367188 18.605469 95.351562 17.800781 94.757812 C 16.773438 94 17.148438 92.78125 17.84375 91.929688 C 19.335938 90.101562 21.738281 88.664062 24.027344 87.863281 C 20.433594 84.902344 17.808594 81.042969 17.285156 76.222656 C 17.023438 74.519531 16.761719 72.816406 16.507812 71.117188 C 15.6875 65.601562 14.941406 59.96875 14.585938 54.328125 C 11.984375 51.898438 9.761719 49.113281 8.035156 45.992188 C 6.417969 43.0625 5.140625 39.886719 4.25 36.660156 C 3.757812 34.886719 3.394531 33.078125 3.15625 31.25 C 2.964844 29.75 2.578125 28.027344 3.089844 26.550781 C 5.003906 21.03125 13.207031 29.691406 15.894531 32.699219 C 16.082031 31.859375 16.285156 31.023438 16.511719 30.191406 C 19.183594 20.269531 25.203125 10.4375 34.289062 5.253906 C 43.5 -0.0078125 55.074219 1.363281 63.808594 6.988281 C 68.4375 9.972656 72.058594 14.132812 74.488281 19.074219 C 76.8125 23.796875 78.148438 28.945312 79.011719 34.132812 C 81.304688 31.230469 83.910156 28.691406 86.847656 26.433594 C 87.964844 25.574219 89.308594 24.582031 90.804688 24.78125 C 91.957031 24.933594 92.6875 25.78125 92.925781 26.886719 C 93.246094 28.355469 92.960938 29.992188 92.765625 31.457031 Z M 92.765625 31.457031 " fill-opacity="1" fill-rule="nonzero"/></g><path fill="#f6f6f4" d="M 73.269531 31.140625 C 71.589844 25.300781 67.628906 19.542969 61.566406 17.71875 C 56.339844 16.144531 49.921875 18.488281 48.058594 23.894531 C 48.042969 24.085938 47.894531 24.214844 47.722656 24.257812 C 47.707031 24.257812 47.699219 24.261719 47.6875 24.261719 C 47.671875 24.265625 47.65625 24.269531 47.640625 24.269531 C 47.625 24.269531 47.613281 24.269531 47.597656 24.269531 C 47.582031 24.269531 47.566406 24.269531 47.554688 24.269531 C 47.539062 24.265625 47.519531 24.265625 47.503906 24.261719 C 47.496094 24.261719 47.484375 24.257812 47.472656 24.257812 C 47.296875 24.214844 47.148438 24.085938 47.136719 23.894531 C 44.914062 17.425781 37.144531 15.75 31.523438 18.746094 C 25.789062 21.800781 22.734375 28.042969 21.585938 34.199219 C 20.925781 37.765625 20.804688 41.40625 20.796875 45.023438 C 20.785156 48.875 20.886719 52.726562 21.089844 56.574219 C 21.292969 60.4375 21.601562 64.292969 22.015625 68.132812 C 22.40625 71.742188 22.789062 75.390625 23.621094 78.929688 C 24.394531 82.210938 25.613281 85.5 27.9375 88.003906 C 30.066406 90.300781 32.84375 91.867188 35.761719 92.910156 C 35.804688 92.921875 35.839844 92.945312 35.871094 92.964844 C 36.714844 93.222656 37.566406 93.453125 38.421875 93.648438 C 38.425781 93.648438 38.429688 93.648438 38.429688 93.648438 C 38.433594 93.648438 38.433594 93.648438 38.433594 93.648438 C 38.507812 93.648438 38.574219 93.671875 38.632812 93.699219 C 39.945312 93.996094 41.269531 94.226562 42.59375 94.378906 C 47.214844 94.921875 52.011719 94.429688 56.566406 93.605469 C 57.6875 93.402344 58.824219 93.160156 59.953125 92.871094 C 63.21875 91.894531 66.167969 89.996094 68.285156 87.300781 C 70.707031 84.21875 71.78125 80.273438 72.453125 76.472656 C 73.785156 68.949219 74.328125 61.207031 74.621094 53.578125 C 74.90625 46.195312 75.335938 38.324219 73.269531 31.140625 Z M 30.195312 43.886719 C 28.144531 43.886719 26.484375 43.140625 26.484375 42.222656 C 26.484375 41.304688 28.148438 40.558594 30.195312 40.558594 C 32.246094 40.558594 33.910156 41.304688 33.910156 42.222656 C 33.910156 43.140625 32.25 43.886719 30.195312 43.886719 Z M 35.65625 36.511719 C 35.660156 35.050781 34.589844 33.789062 33.070312 33.84375 C 31.539062 33.894531 30.578125 35.222656 30.671875 36.679688 C 30.707031 37.265625 29.800781 37.261719 29.765625 36.679688 C 29.644531 34.71875 31.070312 32.992188 33.070312 32.933594 C 35.082031 32.875 36.566406 34.558594 36.558594 36.511719 C 36.558594 37.09375 35.652344 37.09375 35.65625 36.511719 Z M 51.164062 41.554688 C 50.03125 43.371094 48.757812 45.097656 47.628906 46.917969 C 47.4375 47.222656 47.039062 47.199219 46.84375 46.917969 C 45.664062 45.21875 44.789062 43.335938 43.617188 41.628906 C 43.601562 41.609375 43.585938 41.589844 43.578125 41.566406 C 43.574219 41.5625 43.570312 41.558594 43.566406 41.550781 C 43.421875 41.339844 43.492188 41.132812 43.640625 41.011719 C 43.714844 40.929688 43.820312 40.875 43.957031 40.867188 C 46.230469 40.796875 48.5 40.941406 50.769531 40.867188 C 51.109375 40.859375 51.34375 41.265625 51.164062 41.554688 Z M 59.539062 36.511719 C 59.542969 37.09375 58.636719 37.09375 58.632812 36.511719 C 58.625 34.558594 60.113281 32.875 62.125 32.933594 C 64.125 32.992188 65.550781 34.71875 65.429688 36.679688 C 65.394531 37.261719 64.488281 37.261719 64.523438 36.679688 C 64.613281 35.222656 63.652344 33.894531 62.125 33.84375 C 60.605469 33.789062 59.535156 35.050781 59.539062 36.511719 Z M 64.996094 43.394531 C 62.945312 43.394531 61.285156 42.648438 61.285156 41.730469 C 61.285156 40.8125 62.949219 40.066406 64.996094 40.066406 C 67.046875 40.066406 68.710938 40.8125 68.710938 41.730469 C 68.710938 42.648438 67.046875 43.394531 64.996094 43.394531 Z M 64.996094 43.394531 " fill-opacity="1" fill-rule="nonzero"/><path fill="#fcd144" d="M 49.9375 41.796875 C 49.054688 43.164062 48.109375 44.488281 47.230469 45.859375 C 46.371094 44.519531 45.648438 43.097656 44.792969 41.757812 C 46.507812 41.742188 48.222656 41.816406 49.9375 41.796875 Z M 21.097656 90.378906 C 20.472656 90.785156 19.863281 91.222656 19.304688 91.722656 C 19.085938 91.917969 18.867188 92.125 18.667969 92.347656 C 18.175781 92.910156 17.953125 93.957031 18.808594 94.246094 C 20.484375 94.804688 22.59375 94.652344 24.335938 94.640625 C 26.441406 94.628906 28.542969 94.519531 30.640625 94.378906 C 32.414062 94.257812 34.1875 94.105469 35.957031 93.925781 C 32.09375 92.785156 28.152344 91.003906 24.882812 88.539062 C 23.542969 88.953125 22.277344 89.621094 21.097656 90.378906 Z M 77.460938 92.664062 C 76.878906 91.6875 75.675781 90.851562 74.761719 90.230469 C 73.796875 89.574219 72.765625 89.027344 71.652344 88.683594 C 70.9375 89.226562 70.179688 89.726562 69.386719 90.1875 C 66.445312 91.890625 63.214844 93.039062 59.902344 93.835938 C 63.71875 94.335938 67.5625 94.742188 71.414062 94.734375 C 72.558594 94.734375 73.707031 94.691406 74.847656 94.589844 C 75.914062 94.488281 78.554688 94.5 77.460938 92.664062 Z M 77.460938 92.664062 " fill-opacity="1" fill-rule="nonzero"/><path fill="#d95b4d" d="M 33.910156 42.222656 C 33.910156 43.140625 32.25 43.886719 30.199219 43.886719 C 28.148438 43.886719 26.488281 43.140625 26.488281 42.222656 C 26.488281 41.304688 28.148438 40.558594 30.199219 40.558594 C 32.25 40.558594 33.910156 41.304688 33.910156 42.222656 Z M 64.996094 40.066406 C 62.945312 40.066406 61.285156 40.8125 61.285156 41.730469 C 61.285156 42.648438 62.949219 43.394531 64.996094 43.394531 C 67.046875 43.394531 68.710938 42.648438 68.710938 41.730469 C 68.710938 40.8125 67.046875 40.066406 64.996094 40.066406 Z M 64.996094 40.066406 " fill-opacity="1" fill-rule="nonzero"/><g clip-path="url(#b75e4727de)"><path fill="#702106" d="M 36.558594 36.511719 C 36.558594 37.09375 35.652344 37.09375 35.65625 36.511719 C 35.660156 35.050781 34.589844 33.789062 33.070312 33.84375 C 31.539062 33.894531 30.578125 35.222656 30.671875 36.679688 C 30.707031 37.265625 29.800781 37.261719 29.765625 36.679688 C 29.644531 34.71875 31.070312 32.992188 33.070312 32.933594 C 35.078125 32.875 36.566406 34.558594 36.558594 36.511719 Z M 51.164062 41.554688 C 50.03125 43.371094 48.757812 45.097656 47.628906 46.917969 C 47.4375 47.222656 47.039062 47.199219 46.84375 46.917969 C 45.664062 45.21875 44.789062 43.335938 43.617188 41.628906 C 43.601562 41.609375 43.585938 41.589844 43.578125 41.566406 C 43.574219 41.5625 43.570312 41.558594 43.566406 41.550781 C 43.421875 41.339844 43.492188 41.132812 43.640625 41.011719 C 43.714844 40.929688 43.820312 40.875 43.957031 40.867188 C 46.230469 40.796875 48.5 40.941406 50.769531 40.867188 C 51.109375 40.859375 51.34375 41.265625 51.164062 41.554688 Z M 49.9375 41.796875 C 48.222656 41.816406 46.507812 41.742188 44.792969 41.761719 C 45.648438 43.101562 46.371094 44.523438 47.230469 45.859375 C 48.109375 44.488281 49.054688 43.164062 49.9375 41.796875 Z M 92.765625 31.457031 C 92.507812 33.382812 92.101562 35.289062 91.558594 37.152344 C 89.558594 44.011719 85.726562 50.269531 80.503906 55.136719 C 80.503906 55.238281 80.5 55.339844 80.5 55.441406 C 80.324219 62.699219 79.535156 69.917969 78.746094 77.128906 C 78.738281 77.179688 78.726562 77.222656 78.707031 77.265625 C 78.019531 81.628906 75.75 85.277344 72.496094 88.015625 C 73.5625 88.414062 74.5625 88.972656 75.492188 89.636719 C 76.546875 90.386719 77.746094 91.300781 78.410156 92.4375 C 79.941406 95.046875 76.183594 95.382812 74.550781 95.523438 C 68.808594 96 62.984375 95.183594 57.304688 94.394531 C 56.4375 94.558594 55.570312 94.699219 54.703125 94.824219 C 49.824219 95.53125 44.910156 95.808594 40.039062 94.90625 C 39.503906 94.804688 38.964844 94.691406 38.421875 94.570312 C 37.253906 94.796875 36.007812 94.835938 34.832031 94.945312 C 30.195312 95.382812 25.4375 95.8125 20.785156 95.445312 C 19.820312 95.367188 18.605469 95.351562 17.800781 94.757812 C 16.773438 94 17.148438 92.78125 17.84375 91.929688 C 19.335938 90.101562 21.738281 88.664062 24.027344 87.863281 C 20.433594 84.902344 17.808594 81.042969 17.285156 76.222656 C 17.023438 74.519531 16.761719 72.816406 16.507812 71.117188 C 15.6875 65.601562 14.941406 59.96875 14.585938 54.328125 C 11.984375 51.898438 9.761719 49.113281 8.035156 45.992188 C 6.417969 43.0625 5.140625 39.886719 4.25 36.660156 C 3.757812 34.886719 3.394531 33.078125 3.15625 31.25 C 2.964844 29.75 2.578125 28.027344 3.089844 26.550781 C 5.003906 21.03125 13.207031 29.691406 15.894531 32.699219 C 16.082031 31.859375 16.285156 31.023438 16.511719 30.191406 C 19.183594 20.269531 25.203125 10.4375 34.289062 5.253906 C 43.5 -0.0078125 55.074219 1.363281 63.808594 6.988281 C 68.4375 9.972656 72.058594 14.132812 74.488281 19.074219 C 76.8125 23.796875 78.148438 28.945312 79.011719 34.132812 C 81.304688 31.230469 83.910156 28.691406 86.847656 26.433594 C 87.964844 25.574219 89.308594 24.582031 90.804688 24.78125 C 91.957031 24.933594 92.6875 25.78125 92.925781 26.886719 C 93.246094 28.355469 92.960938 29.992188 92.765625 31.457031 Z M 15.664062 33.800781 C 13.5625 31.421875 11.234375 29.078125 8.675781 27.199219 C 7.707031 26.484375 6.070312 25.246094 4.777344 25.832031 C 3.320312 26.484375 3.769531 28.820312 3.921875 30.070312 C 4.320312 33.390625 5.035156 36.609375 6.199219 39.746094 C 8.0625 44.753906 10.738281 49.246094 14.507812 52.996094 C 14.175781 46.550781 14.398438 40.105469 15.664062 33.800781 Z M 35.957031 93.925781 C 32.09375 92.785156 28.152344 91.003906 24.882812 88.539062 C 23.542969 88.953125 22.277344 89.621094 21.097656 90.378906 C 20.472656 90.785156 19.863281 91.222656 19.304688 91.722656 C 19.085938 91.917969 18.867188 92.125 18.667969 92.347656 C 18.175781 92.910156 17.953125 93.957031 18.808594 94.246094 C 20.484375 94.804688 22.59375 94.652344 24.335938 94.640625 C 26.441406 94.628906 28.542969 94.519531 30.640625 94.378906 C 32.414062 94.253906 34.1875 94.105469 35.957031 93.925781 Z M 59.953125 92.875 C 63.21875 91.898438 66.167969 89.996094 68.285156 87.300781 C 70.707031 84.222656 71.78125 80.273438 72.453125 76.476562 C 73.785156 68.949219 74.328125 61.207031 74.621094 53.578125 C 74.90625 46.195312 75.335938 38.320312 73.269531 31.140625 C 71.585938 25.300781 67.625 19.542969 61.566406 17.71875 C 56.335938 16.144531 49.917969 18.488281 48.058594 23.894531 C 48.042969 24.085938 47.894531 24.214844 47.71875 24.257812 C 47.707031 24.257812 47.695312 24.261719 47.683594 24.261719 C 47.667969 24.265625 47.652344 24.269531 47.636719 24.269531 C 47.625 24.269531 47.609375 24.269531 47.59375 24.269531 C 47.578125 24.269531 47.566406 24.269531 47.550781 24.269531 C 47.535156 24.265625 47.519531 24.265625 47.503906 24.261719 C 47.492188 24.261719 47.480469 24.257812 47.472656 24.257812 C 47.296875 24.214844 47.148438 24.085938 47.132812 23.894531 C 44.914062 17.425781 37.140625 15.75 31.519531 18.746094 C 25.789062 21.800781 22.734375 28.042969 21.585938 34.199219 C 20.921875 37.765625 20.800781 41.40625 20.792969 45.023438 C 20.785156 48.875 20.882812 52.726562 21.085938 56.574219 C 21.292969 60.4375 21.597656 64.292969 22.015625 68.132812 C 22.402344 71.742188 22.785156 75.390625 23.621094 78.929688 C 24.394531 82.210938 25.609375 85.5 27.9375 88.003906 C 30.0625 90.300781 32.839844 91.867188 35.761719 92.910156 C 35.800781 92.921875 35.835938 92.945312 35.871094 92.964844 C 36.710938 93.222656 37.5625 93.453125 38.421875 93.648438 C 38.425781 93.648438 38.425781 93.648438 38.429688 93.648438 C 38.429688 93.648438 38.429688 93.648438 38.433594 93.648438 C 38.507812 93.648438 38.570312 93.671875 38.628906 93.699219 C 39.941406 93.996094 41.265625 94.226562 42.59375 94.378906 C 47.214844 94.921875 52.007812 94.429688 56.566406 93.605469 C 57.6875 93.402344 58.824219 93.160156 59.953125 92.875 Z M 71.65625 88.683594 C 70.941406 89.226562 70.179688 89.726562 69.386719 90.1875 C 66.445312 91.890625 63.21875 93.039062 59.90625 93.835938 C 63.722656 94.335938 67.5625 94.742188 71.414062 94.734375 C 72.558594 94.734375 73.707031 94.691406 74.847656 94.589844 C 75.914062 94.488281 78.558594 94.5 77.460938 92.667969 C 76.878906 91.691406 75.675781 90.855469 74.761719 90.234375 C 73.796875 89.574219 72.765625 89.027344 71.65625 88.683594 Z M 77.90625 33.03125 C 76.875 27.425781 75.246094 21.8125 72.277344 16.914062 C 69.449219 12.25 65.316406 8.5625 60.457031 6.121094 C 55.738281 3.75 50.382812 2.550781 45.101562 2.878906 C 40.171875 3.183594 35.535156 5.132812 31.617188 8.101562 C 22.988281 14.640625 18.027344 25.148438 16.261719 35.636719 C 15.238281 41.707031 15.109375 47.835938 15.46875 53.957031 C 15.511719 54.054688 15.511719 54.152344 15.484375 54.242188 C 15.925781 61.546875 17.050781 68.84375 18.164062 76.027344 C 18.167969 76.046875 18.164062 76.066406 18.167969 76.082031 C 18.171875 76.105469 18.175781 76.125 18.179688 76.144531 C 18.78125 81.9375 22.964844 86.402344 27.734375 89.320312 C 27.941406 89.449219 28.15625 89.574219 28.371094 89.699219 C 27.773438 89.164062 27.210938 88.589844 26.695312 87.964844 C 24.171875 84.898438 23.015625 80.910156 22.308594 77.066406 C 20.820312 68.972656 20.273438 60.601562 20.003906 52.378906 C 19.746094 44.542969 19.324219 36.0625 22.195312 28.617188 C 24.351562 23.019531 28.886719 17.707031 35.015625 16.535156 C 40.085938 15.5625 45.417969 17.953125 47.597656 22.628906 C 50.136719 17.21875 56.988281 15.085938 62.511719 17.074219 C 68.570312 19.253906 72.503906 25.078125 74.191406 31.078125 C 75.261719 34.878906 75.578125 38.855469 75.660156 42.789062 C 75.75 47.050781 75.644531 51.320312 75.441406 55.578125 C 75.238281 59.835938 74.902344 64.089844 74.441406 68.332031 C 74.015625 72.242188 73.609375 76.222656 72.609375 80.035156 C 71.75 83.304688 70.375 86.46875 68.046875 88.960938 C 67.410156 89.640625 66.71875 90.257812 65.988281 90.816406 C 71.902344 88.203125 76.808594 83.875 77.851562 76.882812 C 77.855469 76.863281 77.859375 76.847656 77.867188 76.832031 C 78.042969 75.207031 78.222656 73.585938 78.390625 71.960938 C 79.75 58.976562 80.277344 45.941406 77.90625 33.03125 Z M 92.140625 28.035156 C 92.109375 26.515625 91.375 25.277344 89.65625 25.789062 C 88.242188 26.210938 86.949219 27.457031 85.839844 28.375 C 83.375 30.402344 81.191406 32.71875 79.261719 35.257812 C 79.242188 35.285156 79.222656 35.308594 79.199219 35.328125 C 79.230469 35.515625 79.257812 35.707031 79.289062 35.898438 C 80.15625 41.839844 80.585938 47.855469 80.523438 53.859375 C 82.800781 51.640625 84.800781 49.152344 86.464844 46.4375 C 88.089844 43.789062 89.398438 40.953125 90.351562 38 C 91.367188 34.855469 92.207031 31.359375 92.140625 28.035156 Z M 62.125 33.84375 C 63.652344 33.894531 64.613281 35.222656 64.523438 36.679688 C 64.488281 37.261719 65.394531 37.261719 65.429688 36.679688 C 65.550781 34.71875 64.125 32.992188 62.125 32.933594 C 60.113281 32.875 58.625 34.554688 58.632812 36.511719 C 58.636719 37.09375 59.542969 37.09375 59.539062 36.511719 C 59.535156 35.050781 60.605469 33.789062 62.125 33.84375 Z M 62.125 33.84375 " fill-opacity="1" fill-rule="nonzero"/></g></svg>