<svg xmlns="http://www.w3.org/2000/svg" xmlns:xlink="http://www.w3.org/1999/xlink" width="128" zoomAndPan="magnify" viewBox="0 0 96 95.999999" height="128" preserveAspectRatio="xMidYMid meet" version="1.0"><defs><clipPath id="fc82cef11a"><path d="M 12 4.828125 L 84 4.828125 L 84 85 L 12 85 Z M 12 4.828125 " clip-rule="nonzero"/></clipPath></defs><path fill="#ffb205" d="M 69.214844 86.613281 C 68.476562 89.707031 63.066406 91.078125 57.800781 89.832031 C 52.535156 88.582031 50.445312 85.425781 51.183594 82.3125 C 51.921875 79.222656 55.21875 77.335938 60.484375 78.605469 C 65.75 79.855469 69.953125 83.523438 69.214844 86.613281 Z M 69.214844 86.613281 " fill-opacity="1" fill-rule="nonzero"/><path fill="#ffb205" d="M 26.71875 86.613281 C 27.457031 89.707031 32.867188 91.078125 38.132812 89.832031 C 43.398438 88.582031 45.488281 85.425781 44.75 82.3125 C 44.011719 79.222656 40.714844 77.335938 35.449219 78.605469 C 30.183594 79.855469 25.980469 83.523438 26.71875 86.613281 Z M 26.71875 86.613281 " fill-opacity="1" fill-rule="nonzero"/><g clip-path="url(#fc82cef11a)"><path fill="#281c1c" d="M 83.371094 50.648438 C 83.371094 76.25 66.859375 84.257812 47.824219 84.257812 C 28.789062 84.257812 12.5625 76.25 12.5625 50.648438 C 12.5625 25.046875 28.789062 4.828125 47.824219 4.828125 C 66.859375 4.828125 83.371094 25.046875 83.371094 50.648438 Z M 83.371094 50.648438 " fill-opacity="1" fill-rule="nonzero"/></g><path fill="#ffffff" d="M 47.824219 77.480469 C 38.890625 77.480469 31.984375 75.554688 27.3125 71.785156 C 21.945312 67.445312 19.324219 60.542969 19.324219 50.648438 C 19.324219 39.8125 22.007812 27.996094 29.054688 21.050781 C 35.507812 14.683594 47.824219 23.53125 47.824219 23.53125 C 47.824219 23.53125 60.28125 14.867188 66.734375 21.09375 C 73.90625 27.996094 76.589844 39.855469 76.589844 50.648438 C 76.589844 60.5 73.945312 67.402344 68.496094 71.765625 C 63.765625 75.554688 56.796875 77.480469 47.824219 77.480469 Z M 47.824219 77.480469 " fill-opacity="1" fill-rule="nonzero"/><path fill="#efa003" d="M 55.035156 33.957031 C 55.035156 32.523438 51.859375 31.375 47.945312 31.375 C 44.03125 31.375 40.855469 32.523438 40.855469 33.957031 C 40.855469 35.390625 44.03125 39.507812 47.945312 39.507812 C 51.859375 39.507812 55.035156 35.367188 55.035156 33.957031 Z M 55.035156 33.957031 " fill-opacity="1" fill-rule="nonzero"/><path fill="#ffb205" d="M 55.054688 33.957031 C 55.054688 34.125 55.011719 34.292969 54.917969 34.457031 C 54.828125 34.625 54.695312 34.785156 54.515625 34.941406 C 54.339844 35.101562 54.121094 35.25 53.859375 35.390625 C 53.601562 35.53125 53.308594 35.660156 52.980469 35.78125 C 52.648438 35.898438 52.292969 36.007812 51.90625 36.101562 C 51.519531 36.195312 51.109375 36.273438 50.679688 36.339844 C 50.25 36.40625 49.804688 36.453125 49.351562 36.488281 C 48.894531 36.519531 48.433594 36.535156 47.964844 36.535156 C 47.5 36.535156 47.039062 36.519531 46.582031 36.488281 C 46.128906 36.453125 45.683594 36.40625 45.253906 36.339844 C 44.824219 36.273438 44.414062 36.195312 44.027344 36.101562 C 43.640625 36.007812 43.28125 35.898438 42.953125 35.78125 C 42.625 35.660156 42.332031 35.53125 42.070312 35.390625 C 41.8125 35.25 41.59375 35.101562 41.417969 34.941406 C 41.238281 34.785156 41.105469 34.625 41.011719 34.457031 C 40.921875 34.292969 40.878906 34.125 40.878906 33.957031 C 40.878906 33.785156 40.921875 33.617188 41.011719 33.453125 C 41.105469 33.285156 41.238281 33.125 41.417969 32.96875 C 41.59375 32.8125 41.8125 32.664062 42.070312 32.523438 C 42.332031 32.378906 42.625 32.25 42.953125 32.128906 C 43.28125 32.011719 43.640625 31.902344 44.027344 31.808594 C 44.414062 31.714844 44.824219 31.636719 45.253906 31.570312 C 45.683594 31.507812 46.128906 31.457031 46.582031 31.425781 C 47.039062 31.390625 47.5 31.375 47.964844 31.375 C 48.433594 31.375 48.894531 31.390625 49.351562 31.425781 C 49.804688 31.457031 50.25 31.507812 50.679688 31.570312 C 51.109375 31.636719 51.519531 31.714844 51.90625 31.808594 C 52.292969 31.902344 52.648438 32.011719 52.980469 32.128906 C 53.308594 32.25 53.601562 32.378906 53.859375 32.523438 C 54.121094 32.664062 54.339844 32.8125 54.515625 32.96875 C 54.695312 33.125 54.828125 33.285156 54.917969 33.453125 C 55.011719 33.617188 55.054688 33.785156 55.054688 33.957031 Z M 55.054688 33.957031 " fill-opacity="1" fill-rule="nonzero"/><path fill="#281c1c" d="M 38.953125 28.382812 C 38.953125 28.625 38.90625 28.859375 38.8125 29.082031 C 38.71875 29.304688 38.589844 29.503906 38.417969 29.671875 C 38.246094 29.84375 38.050781 29.976562 37.824219 30.070312 C 37.601562 30.160156 37.371094 30.207031 37.128906 30.207031 C 36.886719 30.207031 36.652344 30.160156 36.429688 30.070312 C 36.207031 29.976562 36.007812 29.84375 35.839844 29.671875 C 35.667969 29.503906 35.535156 29.304688 35.441406 29.082031 C 35.351562 28.859375 35.304688 28.625 35.304688 28.382812 C 35.304688 28.144531 35.351562 27.910156 35.441406 27.6875 C 35.535156 27.464844 35.667969 27.265625 35.839844 27.09375 C 36.007812 26.925781 36.207031 26.792969 36.429688 26.699219 C 36.652344 26.609375 36.886719 26.5625 37.128906 26.5625 C 37.371094 26.5625 37.601562 26.609375 37.824219 26.699219 C 38.050781 26.792969 38.246094 26.925781 38.417969 27.09375 C 38.589844 27.265625 38.71875 27.464844 38.8125 27.6875 C 38.90625 27.910156 38.953125 28.144531 38.953125 28.382812 Z M 38.953125 28.382812 " fill-opacity="1" fill-rule="nonzero"/><path fill="#281c1c" d="M 60.628906 28.382812 C 60.628906 28.625 60.582031 28.859375 60.488281 29.082031 C 60.398438 29.304688 60.265625 29.503906 60.09375 29.671875 C 59.921875 29.84375 59.726562 29.976562 59.503906 30.070312 C 59.28125 30.160156 59.046875 30.207031 58.804688 30.207031 C 58.5625 30.207031 58.332031 30.160156 58.109375 30.070312 C 57.882812 29.976562 57.6875 29.84375 57.515625 29.671875 C 57.34375 29.503906 57.214844 29.304688 57.121094 29.082031 C 57.027344 28.859375 56.980469 28.625 56.980469 28.382812 C 56.980469 28.144531 57.027344 27.910156 57.121094 27.6875 C 57.214844 27.464844 57.34375 27.265625 57.515625 27.09375 C 57.6875 26.925781 57.882812 26.792969 58.109375 26.699219 C 58.332031 26.609375 58.5625 26.5625 58.804688 26.5625 C 59.046875 26.5625 59.28125 26.609375 59.503906 26.699219 C 59.726562 26.792969 59.921875 26.925781 60.09375 27.09375 C 60.265625 27.265625 60.398438 27.464844 60.488281 27.6875 C 60.582031 27.910156 60.628906 28.144531 60.628906 28.382812 Z M 60.628906 28.382812 " fill-opacity="1" fill-rule="nonzero"/><path fill="#281c1c" d="M 16.597656 33.667969 C 16.597656 33.667969 2.171875 46.796875 1.109375 54.601562 C 0.0429688 62.40625 5.082031 65.191406 8.441406 63.019531 C 11.804688 60.847656 18.257812 51.734375 18.257812 51.734375 Z M 16.597656 33.667969 " fill-opacity="1" fill-rule="nonzero"/><path fill="#281c1c" d="M 79.335938 54.640625 C 79.335938 54.640625 93.757812 41.511719 94.824219 33.710938 C 95.890625 25.90625 90.851562 23.121094 87.488281 25.292969 C 84.128906 27.460938 77.65625 36.578125 77.65625 36.578125 Z M 79.335938 54.640625 " fill-opacity="1" fill-rule="nonzero"/><path fill="#ffccee" d="M 38.050781 35.429688 C 38.050781 35.613281 38.015625 35.792969 37.949219 35.972656 C 37.882812 36.152344 37.78125 36.328125 37.652344 36.496094 C 37.519531 36.664062 37.355469 36.824219 37.164062 36.976562 C 36.972656 37.128906 36.757812 37.269531 36.511719 37.398438 C 36.269531 37.527344 36.003906 37.644531 35.71875 37.746094 C 35.433594 37.847656 35.128906 37.933594 34.8125 38.003906 C 34.492188 38.074219 34.164062 38.125 33.828125 38.164062 C 33.488281 38.199219 33.148438 38.214844 32.804688 38.214844 C 32.460938 38.214844 32.121094 38.199219 31.78125 38.164062 C 31.445312 38.125 31.117188 38.074219 30.796875 38.003906 C 30.480469 37.933594 30.175781 37.847656 29.890625 37.746094 C 29.605469 37.644531 29.339844 37.527344 29.097656 37.398438 C 28.851562 37.269531 28.636719 37.128906 28.445312 36.976562 C 28.253906 36.824219 28.089844 36.664062 27.957031 36.496094 C 27.828125 36.328125 27.726562 36.152344 27.660156 35.972656 C 27.59375 35.792969 27.558594 35.613281 27.558594 35.429688 C 27.558594 35.246094 27.59375 35.066406 27.660156 34.886719 C 27.726562 34.707031 27.828125 34.53125 27.957031 34.363281 C 28.089844 34.195312 28.253906 34.035156 28.445312 33.882812 C 28.636719 33.730469 28.851562 33.589844 29.097656 33.460938 C 29.339844 33.332031 29.605469 33.214844 29.890625 33.113281 C 30.175781 33.011719 30.480469 32.925781 30.796875 32.855469 C 31.117188 32.785156 31.445312 32.734375 31.78125 32.699219 C 32.121094 32.664062 32.460938 32.644531 32.804688 32.644531 C 33.148438 32.644531 33.488281 32.664062 33.828125 32.699219 C 34.164062 32.734375 34.492188 32.785156 34.8125 32.855469 C 35.128906 32.925781 35.433594 33.011719 35.71875 33.113281 C 36.003906 33.214844 36.269531 33.332031 36.511719 33.460938 C 36.757812 33.589844 36.972656 33.730469 37.164062 33.882812 C 37.355469 34.035156 37.519531 34.195312 37.652344 34.363281 C 37.78125 34.53125 37.882812 34.707031 37.949219 34.886719 C 38.015625 35.066406 38.050781 35.246094 38.050781 35.429688 Z M 38.050781 35.429688 " fill-opacity="1" fill-rule="nonzero"/><path fill="#ffccee" d="M 68.375 35.429688 C 68.375 35.613281 68.339844 35.792969 68.273438 35.972656 C 68.207031 36.152344 68.105469 36.328125 67.972656 36.496094 C 67.84375 36.664062 67.679688 36.824219 67.488281 36.976562 C 67.296875 37.128906 67.082031 37.269531 66.835938 37.398438 C 66.59375 37.527344 66.328125 37.644531 66.042969 37.746094 C 65.757812 37.847656 65.453125 37.933594 65.136719 38.003906 C 64.816406 38.074219 64.488281 38.125 64.152344 38.164062 C 63.8125 38.199219 63.472656 38.214844 63.128906 38.214844 C 62.785156 38.214844 62.441406 38.199219 62.105469 38.164062 C 61.765625 38.125 61.4375 38.074219 61.121094 38.003906 C 60.804688 37.933594 60.5 37.847656 60.214844 37.746094 C 59.929688 37.644531 59.664062 37.527344 59.417969 37.398438 C 59.175781 37.269531 58.957031 37.128906 58.765625 36.976562 C 58.574219 36.824219 58.414062 36.664062 58.28125 36.496094 C 58.152344 36.328125 58.050781 36.152344 57.984375 35.972656 C 57.917969 35.792969 57.882812 35.613281 57.882812 35.429688 C 57.882812 35.246094 57.917969 35.066406 57.984375 34.886719 C 58.050781 34.707031 58.152344 34.53125 58.28125 34.363281 C 58.414062 34.195312 58.574219 34.035156 58.765625 33.882812 C 58.957031 33.730469 59.175781 33.589844 59.417969 33.460938 C 59.664062 33.332031 59.929688 33.214844 60.214844 33.113281 C 60.5 33.011719 60.804688 32.925781 61.121094 32.855469 C 61.4375 32.785156 61.765625 32.734375 62.105469 32.699219 C 62.441406 32.664062 62.785156 32.644531 63.128906 32.644531 C 63.472656 32.644531 63.8125 32.664062 64.152344 32.699219 C 64.488281 32.734375 64.816406 32.785156 65.136719 32.855469 C 65.453125 32.925781 65.757812 33.011719 66.042969 33.113281 C 66.328125 33.214844 66.59375 33.332031 66.835938 33.460938 C 67.082031 33.589844 67.296875 33.730469 67.488281 33.882812 C 67.679688 34.035156 67.84375 34.195312 67.972656 34.363281 C 68.105469 34.53125 68.207031 34.707031 68.273438 34.886719 C 68.339844 35.066406 68.375 35.246094 68.375 35.429688 Z M 68.375 35.429688 " fill-opacity="1" fill-rule="nonzero"/></svg>