<svg xmlns="http://www.w3.org/2000/svg" xmlns:xlink="http://www.w3.org/1999/xlink" width="128" zoomAndPan="magnify" viewBox="0 0 96 95.999999" height="128" preserveAspectRatio="xMidYMid meet" version="1.0"><defs><clipPath id="568be88d09"><path d="M 27.058594 84.886719 L 42.949219 84.886719 L 42.949219 95.992188 L 27.058594 95.992188 Z M 27.058594 84.886719 " clip-rule="nonzero"/></clipPath><clipPath id="50f69639e8"><path d="M 15.378906 0 L 85.867188 0 L 85.867188 90.058594 L 15.378906 90.058594 Z M 15.378906 0 " clip-rule="nonzero"/></clipPath></defs><g clip-path="url(#568be88d09)"><path fill="#ff9700" d="M 36.074219 84.910156 C 36.074219 84.910156 32.035156 87 29.816406 87.851562 C 26.480469 89.128906 27.101562 90.292969 27.269531 90.660156 C 27.617188 91.421875 29.039062 91.355469 30.894531 91.042969 C 30.894531 91.042969 28.332031 92.324219 28.785156 93.5625 C 29.191406 94.65625 30.296875 94.867188 33.277344 93.261719 C 33.277344 93.261719 31.707031 94.71875 32.539062 95.511719 C 33.652344 96.570312 35.050781 96.050781 38.730469 92.246094 C 40.839844 90.0625 43.523438 88.738281 42.792969 88.230469 C 42.058594 87.722656 36.074219 84.910156 36.074219 84.910156 " fill-opacity="1" fill-rule="nonzero"/></g><g clip-path="url(#50f69639e8)"><path fill="#000000" d="M 15.832031 63.824219 C 16.972656 58.761719 15.726562 58.386719 23.027344 47.226562 C 30.332031 36.0625 30.429688 32.59375 35.355469 20.710938 C 40.277344 8.824219 45.40625 -1.089844 62.003906 0.0976562 C 78.601562 1.285156 77.394531 15.605469 77.378906 23.425781 C 77.363281 31.246094 76.726562 39.78125 82.816406 45.949219 C 88.910156 52.113281 84.203125 59.949219 82.945312 64.390625 C 82.945312 64.390625 80.808594 55.894531 75.660156 52.207031 C 75.660156 52.207031 75.597656 75.179688 66.773438 83.148438 C 57.949219 91.113281 54.617188 89.992188 48.007812 89.980469 C 41.394531 89.964844 37.367188 84.066406 32.417969 83.804688 C 29.835938 83.664062 23.113281 83.929688 25.308594 82.445312 C 27.503906 80.960938 31.480469 78.0625 31.480469 78.0625 C 31.480469 78.0625 27.800781 67.085938 28.574219 61.464844 C 28.574219 61.464844 18.410156 70.125 17.566406 76.695312 C 17.566406 76.695312 14.183594 71.132812 15.832031 63.824219 " fill-opacity="1" fill-rule="nonzero"/></g><path fill="#efefef" d="M 59.804688 18.914062 L 64.265625 18.550781 C 64.265625 18.550781 63.542969 11.515625 68.109375 11.183594 C 72.675781 10.851562 73.402344 14.082031 73.335938 20.773438 C 73.269531 27.460938 71.828125 38.445312 71.957031 44.855469 C 72.082031 51.265625 71.328125 72.847656 66.84375 79.355469 C 62.363281 85.863281 55.230469 88.460938 49.832031 88.214844 C 44.429688 87.964844 38.421875 85.972656 36.746094 77.988281 C 35.070312 70.003906 36.214844 59.269531 37.664062 54.332031 C 39.117188 49.390625 43.175781 34.820312 43.042969 31.089844 C 42.910156 27.359375 44.246094 18.25 46.40625 15.082031 C 48.566406 11.917969 51.269531 10.699219 55.183594 11.070312 C 59.09375 11.4375 59.644531 16.410156 59.804688 18.914062 " fill-opacity="1" fill-rule="nonzero"/><path fill="#ffffff" d="M 56.132812 19.792969 C 56.132812 19.792969 55.871094 14.6875 52.507812 14.957031 C 49.140625 15.222656 49.089844 18.683594 49.230469 20.417969 C 49.230469 20.417969 52.867188 19.269531 56.132812 19.792969 " fill-opacity="1" fill-rule="nonzero"/><path fill="#000000" d="M 54.789062 19.765625 C 54.789062 19.765625 55.125 16.488281 52.675781 16.601562 C 50.460938 16.707031 50.40625 18.800781 50.539062 20.097656 C 50.539062 20.097656 53.007812 19.601562 54.789062 19.765625 " fill-opacity="1" fill-rule="nonzero"/><path fill="#ffffff" d="M 52.113281 17.488281 L 52.125 17.488281 C 52.480469 17.527344 52.738281 17.84375 52.699219 18.199219 C 52.664062 18.554688 52.347656 18.8125 51.992188 18.773438 L 51.980469 18.773438 C 51.625 18.738281 51.367188 18.417969 51.40625 18.0625 C 51.441406 17.707031 51.761719 17.453125 52.113281 17.488281 " fill-opacity="1" fill-rule="nonzero"/><path fill="#ffffff" d="M 66.542969 19.347656 C 66.542969 19.347656 66.453125 15.074219 69.332031 15.125 C 72.210938 15.171875 72.46875 18.058594 72.457031 19.515625 C 72.457031 19.515625 69.289062 18.742188 66.542969 19.347656 " fill-opacity="1" fill-rule="nonzero"/><path fill="#000000" d="M 67.683594 19.253906 C 67.683594 19.253906 67.199219 16.539062 69.289062 16.507812 C 71.179688 16.476562 71.355469 18.222656 71.324219 19.3125 C 71.324219 19.3125 69.195312 19.027344 67.683594 19.253906 " fill-opacity="1" fill-rule="nonzero"/><path fill="#ffffff" d="M 68.871094 17.21875 L 68.863281 17.21875 C 68.5625 17.269531 68.363281 17.546875 68.417969 17.839844 C 68.472656 18.132812 68.757812 18.332031 69.058594 18.285156 L 69.066406 18.28125 C 69.367188 18.234375 69.566406 17.957031 69.511719 17.660156 C 69.457031 17.367188 69.171875 17.167969 68.871094 17.21875 " fill-opacity="1" fill-rule="nonzero"/><path fill="#ff9700" d="M 56.714844 22.191406 C 56.714844 22.191406 61.03125 18.53125 63.886719 19.394531 C 66.742188 20.253906 67.726562 23.796875 68.601562 24.714844 C 68.601562 24.714844 66.445312 25.785156 64.28125 26.800781 C 62.117188 27.816406 56.539062 28.078125 56.714844 22.191406 " fill-opacity="1" fill-rule="nonzero"/><path fill="#c97200" d="M 64.964844 25.082031 C 64.152344 25.082031 63.199219 25.046875 62.003906 24.957031 C 58.835938 24.722656 56.757812 22.449219 56.671875 22.351562 C 56.566406 22.234375 56.574219 22.050781 56.691406 21.945312 C 56.808594 21.839844 56.992188 21.847656 57.097656 21.96875 C 57.117188 21.988281 59.113281 24.164062 62.046875 24.382812 C 64.890625 24.597656 66.328125 24.488281 67.847656 24.371094 L 68.210938 24.34375 C 68.367188 24.332031 68.503906 24.453125 68.515625 24.609375 C 68.527344 24.769531 68.410156 24.90625 68.253906 24.917969 L 67.890625 24.945312 C 66.988281 25.011719 66.113281 25.082031 64.964844 25.082031 " fill-opacity="1" fill-rule="nonzero"/><path fill="#ff9700" d="M 66.542969 83.433594 C 66.542969 83.433594 70.742188 85.175781 73.027344 85.839844 C 76.457031 86.832031 75.9375 88.042969 75.800781 88.425781 C 75.515625 89.214844 74.089844 89.265625 72.214844 89.109375 C 72.214844 89.109375 74.878906 90.171875 74.527344 91.441406 C 74.21875 92.566406 73.132812 92.867188 70.03125 91.519531 C 70.03125 91.519531 71.714844 92.835938 70.953125 93.699219 C 69.933594 94.847656 68.496094 94.445312 64.507812 90.960938 C 62.226562 88.964844 60.042969 88.203125 60.730469 87.636719 C 61.421875 87.066406 66.542969 83.433594 66.542969 83.433594 " fill-opacity="1" fill-rule="nonzero"/><path fill="#4d4d4d" d="M 28.574219 61.898438 C 28.4375 61.898438 28.304688 61.832031 28.21875 61.710938 C 28.085938 61.511719 28.136719 61.246094 28.332031 61.113281 C 28.382812 61.074219 33.640625 57.316406 33.457031 47.917969 C 33.453125 47.679688 33.640625 47.484375 33.878906 47.476562 C 33.882812 47.476562 33.886719 47.476562 33.886719 47.476562 C 34.121094 47.476562 34.3125 47.664062 34.320312 47.902344 C 34.511719 57.792969 29.050781 61.660156 28.820312 61.820312 C 28.746094 61.871094 28.660156 61.898438 28.574219 61.898438 " fill-opacity="1" fill-rule="nonzero"/><path fill="#4d4d4d" d="M 75.660156 52.636719 C 75.65625 52.636719 75.648438 52.636719 75.640625 52.636719 C 75.402344 52.625 75.222656 52.421875 75.230469 52.1875 C 75.421875 48.074219 75.140625 46.042969 74.886719 44.25 C 74.847656 43.949219 74.804688 43.65625 74.765625 43.367188 C 74.738281 43.128906 74.90625 42.914062 75.140625 42.882812 C 75.375 42.855469 75.59375 43.019531 75.621094 43.257812 C 75.660156 43.542969 75.699219 43.832031 75.742188 44.128906 C 75.996094 45.960938 76.289062 48.035156 76.09375 52.226562 C 76.082031 52.457031 75.890625 52.636719 75.660156 52.636719 " fill-opacity="1" fill-rule="nonzero"/></svg>