<svg xmlns="http://www.w3.org/2000/svg" xmlns:xlink="http://www.w3.org/1999/xlink" width="128" zoomAndPan="magnify" viewBox="0 0 96 95.999999" height="128" preserveAspectRatio="xMidYMid meet" version="1.0"><defs><clipPath id="4df162d968"><path d="M 25 82 L 39.609375 82 L 39.609375 95.992188 L 25 95.992188 Z M 25 82 " clip-rule="nonzero"/></clipPath><clipPath id="d5fd6bc209"><path d="M 15.480469 0.00390625 L 82.695312 0.00390625 L 82.695312 86.316406 L 15.480469 86.316406 Z M 15.480469 0.00390625 " clip-rule="nonzero"/></clipPath></defs><path fill="#ff9700" d="M 62.390625 80.984375 C 63.3125 82.527344 63.089844 83.097656 63.261719 84.5 C 63.4375 85.898438 63.40625 86.988281 63.71875 87.832031 C 64.03125 88.675781 64.328125 89.484375 66.316406 91.476562 C 69.785156 94.949219 71.589844 94.855469 72.300781 94.21875 C 73.09375 93.503906 71.296875 91.871094 71.296875 91.871094 C 73.378906 93.167969 74.273438 93.027344 74.808594 92.4375 C 75.558594 91.621094 73.601562 90.167969 73.601562 90.167969 C 75.054688 90.835938 76.765625 90.796875 77.09375 90.101562 C 77.253906 89.761719 77.539062 88.617188 74.71875 87.464844 C 73.105469 86.804688 71.226562 85.902344 70.117188 85.375 C 68.703125 83.753906 68.496094 82.25 67.460938 81.042969 C 66.003906 79.339844 62.390625 80.984375 62.390625 80.984375 " fill-opacity="1" fill-rule="nonzero"/><g clip-path="url(#4df162d968)"><path fill="#ff9700" d="M 39.566406 82.785156 C 38.667969 84.285156 38.886719 84.84375 38.714844 86.203125 C 38.546875 87.5625 38.574219 88.625 38.269531 89.445312 C 37.96875 90.265625 37.675781 91.054688 35.738281 92.988281 C 32.355469 96.367188 30.59375 96.273438 29.902344 95.65625 C 29.128906 94.964844 30.878906 93.371094 30.878906 93.371094 C 28.851562 94.636719 27.980469 94.496094 27.457031 93.925781 C 26.726562 93.128906 28.632812 91.714844 28.632812 91.714844 C 27.214844 92.367188 25.546875 92.328125 25.226562 91.652344 C 25.074219 91.324219 24.792969 90.210938 27.546875 89.085938 C 29.117188 88.445312 30.953125 87.566406 32.03125 87.054688 C 33.414062 85.480469 33.613281 84.019531 34.621094 82.839844 C 36.042969 81.183594 39.566406 82.785156 39.566406 82.785156 " fill-opacity="1" fill-rule="nonzero"/></g><g clip-path="url(#d5fd6bc209)"><path fill="#000000" d="M 50.761719 0.0078125 C 55.5625 -0.078125 69.09375 1.832031 67.472656 18.453125 C 66.832031 25 65.308594 27.035156 67.371094 27.453125 C 68.265625 27.632812 71.820312 25.492188 75.457031 19.695312 C 78.273438 15.207031 79.53125 11.621094 79.789062 9.964844 C 80.046875 8.308594 83.632812 12.699219 82.457031 23.535156 C 81.703125 30.488281 79.238281 35.449219 72.574219 41.253906 C 72.574219 41.253906 74.964844 52.121094 75.417969 62.417969 C 75.757812 70.113281 74.269531 76.925781 66.457031 81.792969 C 59.964844 85.839844 52.171875 86.285156 48.085938 86.15625 C 46.039062 86.089844 41.816406 85.941406 37.714844 84.308594 C 33.609375 82.675781 29.625 79.554688 27.808594 74.335938 C 24.179688 63.902344 27.777344 48.28125 28.25 45.402344 C 28.25 45.402344 8.359375 36.097656 18.230469 10.03125 C 18.230469 10.03125 19.261719 8.515625 20.664062 14.71875 C 22.066406 20.921875 25.808594 33.035156 30.253906 29.828125 C 33.160156 27.734375 32.023438 23.316406 34.476562 13.617188 C 36 7.59375 41.257812 0.175781 50.761719 0.0078125 " fill-opacity="1" fill-rule="nonzero"/></g><path fill="#efefef" d="M 48.613281 16.71875 C 48.613281 16.71875 51.527344 16.175781 54.996094 16.71875 C 54.996094 16.71875 55.875 9.160156 60.421875 9.21875 C 64.695312 9.277344 64.851562 14.210938 63.894531 18.121094 C 62.933594 22.03125 62.660156 27.96875 64.371094 30.808594 C 65.570312 32.796875 68.441406 34.480469 72.453125 29.609375 C 76.464844 24.738281 80.59375 13.851562 80.894531 12.40625 C 80.894531 12.40625 82.449219 16.796875 81.792969 24.015625 C 81.3125 29.273438 77.480469 38.328125 68.144531 42.898438 C 68.144531 42.898438 70.476562 54.023438 70.476562 61.601562 C 70.476562 69.179688 69.339844 81.039062 64.015625 83.230469 C 59.167969 85.222656 48.921875 90.171875 36.914062 84.046875 C 36.914062 84.046875 29.59375 74.414062 33.183594 47.109375 C 33.183594 47.109375 25.761719 44.222656 22.171875 39.589844 C 18.578125 34.960938 12.953125 26.179688 18.402344 12.527344 C 18.402344 12.527344 19.597656 28.285156 24.324219 32.3125 C 29.054688 36.34375 34.503906 36.945312 35.640625 33.578125 C 36.964844 29.652344 37.90625 26.859375 37.734375 21.910156 C 37.554688 16.675781 37.699219 8.089844 43.902344 8.738281 C 46.773438 9.039062 48.492188 11.785156 48.613281 16.71875 " fill-opacity="1" fill-rule="nonzero"/><path fill="#ffffff" d="M 57.726562 16.71875 C 57.726562 16.71875 56.84375 12.457031 59.507812 12.007812 C 62.175781 11.558594 62.957031 14.402344 63.214844 15.859375 C 63.214844 15.859375 60.148438 15.636719 57.726562 16.71875 " fill-opacity="1" fill-rule="nonzero"/><path fill="#000000" d="M 58.761719 16.429688 C 58.761719 16.429688 57.804688 13.792969 59.730469 13.398438 C 61.46875 13.042969 61.957031 14.757812 62.132812 15.855469 C 62.132812 15.855469 60.113281 15.9375 58.761719 16.429688 " fill-opacity="1" fill-rule="nonzero"/><path fill="#ffffff" d="M 59.496094 14.105469 L 59.488281 14.109375 C 59.21875 14.210938 59.085938 14.523438 59.191406 14.808594 C 59.296875 15.09375 59.597656 15.242188 59.867188 15.140625 L 59.875 15.140625 C 60.140625 15.039062 60.273438 14.726562 60.167969 14.441406 C 60.066406 14.15625 59.761719 14.003906 59.496094 14.105469 " fill-opacity="1" fill-rule="nonzero"/><path fill="#ffffff" d="M 45.9375 16.546875 C 45.9375 16.546875 46.832031 12.496094 44.039062 12 C 41.246094 11.503906 40.453125 14.203125 40.191406 15.589844 C 40.191406 15.589844 43.394531 15.453125 45.9375 16.546875 " fill-opacity="1" fill-rule="nonzero"/><path fill="#000000" d="M 44.851562 16.242188 C 44.851562 16.242188 45.832031 13.746094 43.820312 13.324219 C 42 12.941406 41.496094 14.570312 41.324219 15.613281 C 41.324219 15.613281 43.4375 15.742188 44.851562 16.242188 " fill-opacity="1" fill-rule="nonzero"/><path fill="#ffffff" d="M 43.171875 13.902344 L 43.179688 13.90625 C 43.460938 14.007812 43.601562 14.308594 43.492188 14.578125 C 43.386719 14.851562 43.070312 14.984375 42.792969 14.882812 L 42.785156 14.878906 C 42.503906 14.773438 42.363281 14.472656 42.46875 14.203125 C 42.578125 13.933594 42.890625 13.796875 43.171875 13.902344 " fill-opacity="1" fill-rule="nonzero"/><path fill="#ff9700" d="M 51.753906 15.796875 C 53.933594 15.796875 56.324219 17.1875 56.824219 18.617188 C 56.824219 18.617188 58.375 22.617188 51.921875 24.972656 C 51.921875 24.972656 46.769531 24.59375 46.769531 18.828125 C 46.769531 18.828125 48.066406 15.796875 51.753906 15.796875 " fill-opacity="1" fill-rule="nonzero"/><path fill="#c97200" d="M 52.007812 22.007812 C 51.960938 22.007812 51.914062 21.996094 51.871094 21.972656 L 47.09375 19.277344 C 46.964844 19.203125 46.917969 19.035156 46.992188 18.902344 C 47.0625 18.769531 47.230469 18.722656 47.363281 18.796875 L 52.003906 21.414062 L 56.394531 18.882812 C 56.527344 18.808594 56.695312 18.851562 56.769531 18.984375 C 56.84375 19.117188 56.796875 19.285156 56.667969 19.359375 L 52.140625 21.972656 C 52.101562 21.996094 52.050781 22.007812 52.007812 22.007812 " fill-opacity="1" fill-rule="nonzero"/></svg>