<svg xmlns="http://www.w3.org/2000/svg" xmlns:xlink="http://www.w3.org/1999/xlink" width="128" zoomAndPan="magnify" viewBox="0 0 96 95.999999" height="128" preserveAspectRatio="xMidYMid meet" version="1.0"><defs><clipPath id="f19be9d2a3"><path d="M 10.136719 0.0546875 L 76.886719 0.0546875 L 76.886719 89.914062 L 10.136719 89.914062 Z M 10.136719 0.0546875 " clip-rule="nonzero"/></clipPath></defs><g clip-path="url(#f19be9d2a3)"><path fill="#211d1d" d="M 43.507812 85.25 C 31.847656 85.25 25.136719 79.761719 22.058594 71.667969 C 27.734375 76.035156 32.851562 80.929688 46.167969 81.273438 C 51.046875 81.398438 56.871094 80.785156 61.039062 79.328125 C 57.460938 83.027344 51.917969 85.25 43.507812 85.25 Z M 73.128906 52.832031 C 67.875 40.433594 61.207031 37 60.59375 36.34375 C 63.726562 32.507812 65.605469 27.605469 65.605469 22.257812 C 65.605469 9.996094 55.714844 0.0546875 43.507812 0.0546875 C 31.304688 0.0546875 21.410156 9.996094 21.410156 22.257812 C 21.410156 27.644531 23.320312 32.578125 26.492188 36.421875 C 25.96875 36.980469 18.847656 40.90625 13.890625 52.832031 C 11.117188 59.503906 8.863281 69.425781 10.960938 73.128906 C 11.855469 74.699219 13.996094 73.050781 16.550781 69.609375 C 17.90625 76.617188 21.722656 82.460938 27.832031 86.039062 C 30.65625 87.699219 33.972656 88.871094 37.765625 89.453125 C 39.554688 89.726562 41.449219 89.871094 43.449219 89.871094 C 45.484375 89.871094 47.394531 89.753906 49.183594 89.53125 C 53.34375 89.015625 56.839844 87.914062 59.734375 86.335938 C 66.175781 82.828125 69.625 76.960938 70.675781 69.882812 C 73.140625 73.136719 75.1875 74.65625 76.058594 73.128906 C 78.15625 69.425781 75.949219 59.484375 73.128906 52.832031 " fill-opacity="1" fill-rule="nonzero"/></g><path fill="#ffffff" d="M 57.15625 38.273438 C 55.882812 37.207031 54.527344 36.277344 53.117188 35.507812 C 56.535156 34.570312 59.261719 33.121094 60.453125 31.21875 C 62.859375 27.371094 61.875 13.585938 55.058594 13.996094 C 47 14.480469 51.785156 26.960938 50.9375 28.242188 C 47.269531 33.792969 38.484375 32.363281 36.457031 28.644531 C 35.941406 27.703125 38.066406 14.550781 30.289062 14.824219 C 24.792969 15.015625 24.792969 28.359375 27.257812 31.3125 C 28.472656 33.246094 30.882812 34.628906 33.878906 35.519531 C 32.480469 36.289062 31.132812 37.210938 29.863281 38.273438 C 24.125 43.054688 19.996094 50.589844 19.996094 59.070312 C 19.996094 60.707031 20.078125 62.308594 20.25 63.867188 C 20.558594 66.648438 21.148438 69.273438 22.058594 71.667969 C 27.734375 76.035156 32.851562 80.929688 46.167969 81.273438 C 51.046875 81.398438 56.871094 80.785156 61.039062 79.328125 C 64.730469 75.515625 66.335938 70.128906 66.835938 63.984375 C 66.964844 62.394531 67.023438 60.75 67.023438 59.070312 C 67.023438 50.59375 62.894531 43.054688 57.15625 38.273438 " fill-opacity="1" fill-rule="nonzero"/><path fill="#f9a70f" d="M 43.445312 30.621094 C 42.253906 30.621094 38.964844 26.164062 39.644531 25.273438 C 40.921875 23.59375 46.347656 23.878906 47.40625 25.273438 C 47.941406 25.980469 44.835938 30.621094 43.445312 30.621094 " fill-opacity="1" fill-rule="nonzero"/><path fill="#211d1d" d="M 35.5 20.96875 C 35.5 22.347656 34.390625 23.464844 33.019531 23.464844 C 31.648438 23.464844 30.535156 22.347656 30.535156 20.96875 C 30.535156 19.59375 31.648438 18.472656 33.019531 18.472656 C 33.660156 18.472656 34.246094 18.71875 34.6875 19.121094 L 33.484375 20.871094 L 35.488281 20.710938 C 35.5 20.796875 35.5 20.882812 35.5 20.96875 " fill-opacity="1" fill-rule="nonzero"/><path fill="#211d1d" d="M 56.480469 20.96875 C 56.480469 22.347656 55.375 23.464844 54 23.464844 C 52.628906 23.464844 51.519531 22.347656 51.519531 20.96875 C 51.519531 19.59375 52.628906 18.472656 54 18.472656 C 54.644531 18.472656 55.226562 18.71875 55.667969 19.121094 L 54.46875 20.871094 L 56.472656 20.710938 C 56.480469 20.796875 56.480469 20.882812 56.480469 20.96875 " fill-opacity="1" fill-rule="nonzero"/><path fill="#e4e4e3" d="M 61.039062 79.328125 C 57.460938 83.027344 51.917969 85.25 43.507812 85.25 C 31.847656 85.25 25.136719 79.761719 22.058594 71.667969 C 27.734375 76.035156 32.851562 80.929688 46.167969 81.273438 C 51.046875 81.398438 56.871094 80.785156 61.039062 79.328125 " fill-opacity="1" fill-rule="nonzero"/><path fill="#f9a70f" d="M 60.472656 87.328125 C 62.574219 90.390625 61.621094 95.242188 61.621094 95.242188 C 61.5 95.84375 61.027344 95.953125 60.566406 95.484375 L 58.246094 93.132812 C 57.785156 92.667969 57.441406 92.492188 56.902344 93.304688 L 55.992188 95.148438 C 55.714844 95.710938 55.175781 95.746094 54.792969 95.230469 L 53.308594 93.21875 C 52.527344 92.253906 52.378906 92.417969 51.660156 93.03125 L 49.589844 94.660156 C 49.0625 95.078125 48.535156 94.925781 48.410156 94.324219 C 48.410156 94.324219 48.207031 93.335938 48.226562 92.003906 C 48.625 84.65625 58.246094 84.179688 60.472656 87.328125 " fill-opacity="1" fill-rule="nonzero"/><path fill="#f9a70f" d="M 27 87.050781 C 24.667969 89.988281 25.246094 94.882812 25.246094 94.882812 C 25.316406 95.488281 25.78125 95.625 26.277344 95.183594 L 28.777344 92.964844 C 29.273438 92.527344 29.628906 92.375 30.101562 93.214844 L 30.867188 95.101562 C 31.101562 95.679688 31.636719 95.746094 32.058594 95.253906 L 33.695312 93.328125 C 34.546875 92.40625 34.683594 92.582031 35.351562 93.234375 L 37.292969 94.976562 C 37.785156 95.421875 38.328125 95.296875 38.5 94.707031 C 38.5 94.707031 38.777344 93.730469 38.859375 92.402344 C 39.03125 85.046875 29.464844 84.03125 27 87.050781 " fill-opacity="1" fill-rule="nonzero"/></svg>